<?xml version="1.0" encoding="UTF-8" standalone="no"?>
<svg
   width="256"
   height="256"
   viewBox="0 0 256 256"
   version="1.1"
   id="svg1"
   sodipodi:docname="icon-transparent-violet.svg"
   xmlns:inkscape="http://www.inkscape.org/namespaces/inkscape"
   xmlns:sodipodi="http://sodipodi.sourceforge.net/DTD/sodipodi-0.dtd"
   xmlns="http://www.w3.org/2000/svg"
   xmlns:svg="http://www.w3.org/2000/svg">
  <defs
     id="defs1" />
  <sodipodi:namedview
     id="namedview1"
     pagecolor="#ffffff"
     bordercolor="#000000"
     borderopacity="0.25"
     inkscape:showpageshadow="2"
     inkscape:pageopacity="0.0"
     inkscape:pagecheckerboard="0"
     inkscape:deskcolor="#d1d1d1" />
  
  <path
     d="m 156.63594,170 h -34.62891 v -4.16016 q 4.57031,-0.29297 7.55859,-1.17187 3.04688,-0.87891 3.04688,-2.16797 0,-0.52734 -0.11719,-1.28906 -0.11719,-0.76172 -0.35156,-1.34766 l -6.91406,-18.63281 H 96.108594 q -1.640625,4.10156 -2.695313,7.14844 -0.996094,3.04687 -1.816406,5.625 -0.761719,2.51953 -1.054688,4.10156 -0.292968,1.58203 -0.292968,2.57812 0,2.34375 3.691406,3.63282 3.691406,1.28906 8.320315,1.52343 V 170 H 70.971875 v -4.16016 q 1.523437,-0.11718 3.808594,-0.64453 2.285156,-0.58594 3.75,-1.52344 2.34375,-1.58203 3.632812,-3.28125 1.289063,-1.75781 2.519531,-4.80468 6.269532,-15.64453 13.828125,-35.15625 7.558593,-19.51172 13.476563,-34.746096 h 4.6875 l 27.71484,71.718746 q 0.87891,2.28516 1.99219,3.69141 1.11328,1.40625 3.10547,2.75391 1.34766,0.82031 3.51562,1.40625 2.16797,0.52734 3.63282,0.58593 z m -33.51563,-33.98438 -12.59765,-32.22656 -12.363285,32.22656 z m 51.47813,27.2461 q 0,3.28125 -2.40234,5.625 -2.34375,2.28515 -5.625,2.28515 -3.28125,0 -5.6836,-2.28515 -2.34375,-2.34375 -2.34375,-5.625 0,-3.28125 2.34375,-5.625 2.40235,-2.40235 5.6836,-2.40235 3.28125,0 5.625,2.40235 2.40234,2.34375 2.40234,5.625 z"
     id="text1"
     fill="#c87cff"
     aria-label="A." />
</svg>
