<?xml version="1.0" encoding="UTF-8" standalone="no"?>
<svg
   width="256"
   height="256"
   viewBox="0 0 256 256"
   version="1.1"
   id="svg1"
   sodipodi:docname="icon-light.svg"
   xmlns:inkscape="http://www.inkscape.org/namespaces/inkscape"
   xmlns:sodipodi="http://sodipodi.sourceforge.net/DTD/sodipodi-0.dtd"
   xmlns="http://www.w3.org/2000/svg"
   xmlns:svg="http://www.w3.org/2000/svg">
  <defs
     id="defs1" />
  <sodipodi:namedview
     id="namedview1"
     pagecolor="#ffffff"
     bordercolor="#000000"
     borderopacity="0.25"
     inkscape:showpageshadow="2"
     inkscape:pageopacity="0.0"
     inkscape:pagecheckerboard="0"
     inkscape:deskcolor="#d1d1d1" />
  
  <rect
     width="256"
     height="256"
     rx="56"
     fill="#F5F4F0"
     id="rect1" />
  <path
     d="m 73.760069,168 v -1.2 l 3,-1.08 q 2.4,-0.96 3.72,-2.28 1.32,-1.44 2.16,-3.96 L 107.36007,88.56 h 10.2 l 24.36,71.4 q 0.96,2.64 2.16,4.08 1.2,1.32 3.72,2.28 l 1.44,0.48 v 1.2 h -30.48 v -1.2 l 1.8,-0.6 q 2.52,-0.96 3,-2.64 0.6,-1.8 -0.12,-4.2 l -5.64,-17.28 H 91.160069 l -5.76,16.92 q -0.84,2.64 -0.6,4.2 0.36,1.56 2.88,2.52 l 2.64,1.08 v 1.2 z m 18.24,-28.32 h 25.080001 l -12.12,-37.32 z m 73.199951,30.12 q -4.32,0 -7.32,-3 -3,-3 -3,-7.2 0,-4.2 3,-7.32 3,-3.12 7.32,-3.12 4.32,0 7.32,3.12 3,3.12 3,7.32 0,4.2 -3,7.2 -3,3 -7.32,3 z"
     id="text1"
     fill="#c87cff"
     aria-label="A." />
</svg>
