<?xml version="1.0" encoding="UTF-8" standalone="no"?>
<svg
   width="880"
   height="276"
   viewBox="0 0 880 276"
   version="1.1"
   id="svg2"
   sodipodi:docname="logo-transparent-violet.svg"
   xmlns:inkscape="http://www.inkscape.org/namespaces/inkscape"
   xmlns:sodipodi="http://sodipodi.sourceforge.net/DTD/sodipodi-0.dtd"
   xmlns="http://www.w3.org/2000/svg"
   xmlns:svg="http://www.w3.org/2000/svg">
  <defs
     id="defs2" />
  <sodipodi:namedview
     id="namedview2"
     pagecolor="#ffffff"
     bordercolor="#000000"
     borderopacity="0.25"
     inkscape:showpageshadow="2"
     inkscape:pageopacity="0.0"
     inkscape:pagecheckerboard="0"
     inkscape:deskcolor="#d1d1d1" />
  
  <path
     d="m 355.84328,169 h -60.02344 v -7.21094 q 7.92188,-0.50781 13.10157,-2.03125 5.28125,-1.52344 5.28125,-3.75781 0,-0.91406 -0.20313,-2.23438 -0.20312,-1.32031 -0.60937,-2.33593 l -11.98438,-32.29688 h -50.47656 q -2.84375,7.10938 -4.67188,12.39063 -1.72656,5.28125 -3.14843,9.75 -1.32032,4.36718 -1.82813,7.10937 -0.50781,2.74219 -0.50781,4.46875 0,4.0625 6.39844,6.29688 6.39843,2.23437 14.42187,2.64062 V 169 h -54.23437 v -7.21094 q 2.64062,-0.20312 6.60156,-1.11719 3.96094,-1.01562 6.5,-2.64062 4.0625,-2.74219 6.29687,-5.6875 2.23438,-3.04688 4.36719,-8.32813 10.86719,-27.11718 23.96875,-60.937495 13.10156,-33.820313 23.35938,-60.226563 h 8.125 l 48.03906,124.312498 q 1.52344,3.96094 3.45312,6.39844 1.92969,2.4375 5.38282,4.77344 2.33593,1.42187 6.09375,2.4375 3.75781,0.91406 6.29687,1.01562 z M 297.74953,110.09375 275.91359,54.234375 254.48391,110.09375 Z m 143.36156,35.34375 q -6.29688,11.98437 -16.85938,19.09375 -10.5625,7.10937 -24.27343,7.10937 -12.08594,0 -21.22657,-4.26562 -9.03906,-4.26563 -14.92968,-11.57813 -5.89063,-7.3125 -8.83594,-17.0625 -2.84375,-9.75 -2.84375,-20.61718 0,-9.75 3.04687,-19.093753 3.14844,-9.445312 9.14063,-16.960937 5.78906,-7.210938 14.32031,-11.578125 8.63281,-4.46875 19.29688,-4.46875 10.96875,0 18.78906,3.453125 7.82031,3.453125 12.69531,9.445312 4.67188,5.6875 6.90625,13.40625 2.33594,7.718748 2.33594,16.757818 v 6.70312 h -66.32031 q 0,9.85156 1.82812,17.875 1.92969,8.02344 5.99219,14.11719 3.96094,5.89062 10.35937,9.34375 6.39844,3.35156 15.23438,3.35156 9.03906,0 15.53906,-4.16406 6.60156,-4.26563 12.69531,-15.23438 z M 418.66578,107.25 q 0,-5.6875 -1.01563,-12.1875 -0.91406,-6.5 -3.04687,-10.867188 -2.33594,-4.671875 -6.39844,-7.617187 -4.0625,-2.945313 -10.46094,-2.945313 -10.66406,0 -17.77344,8.9375 -7.00781,8.835938 -7.61718,24.679688 z M 523.12891,81.757812 q 0,5.179688 -2.53906,9.242188 -2.53906,3.960937 -7.82031,3.960937 -5.6875,0 -8.73438,-2.945312 -2.94531,-2.945313 -2.94531,-6.5 0,-2.234375 0.30469,-4.0625 0.40625,-1.828125 0.71093,-3.65625 -4.77343,0 -11.17187,3.859375 -6.39844,3.859375 -10.86719,10.96875 v 58.29687 q 0,3.55469 1.32031,5.78907 1.42188,2.23437 4.36719,3.35156 2.53906,1.01562 6.5,1.52344 4.0625,0.50781 7.00781,0.71093 V 169 h -52.8125 v -6.70313 q 2.33594,-0.20312 4.77344,-0.40625 2.53906,-0.20312 4.36719,-0.8125 2.84375,-0.91406 4.16406,-3.14843 1.42188,-2.33594 1.42188,-5.99219 V 90.085937 q 0,-3.148437 -1.52344,-6.195312 -1.42188,-3.046875 -4.0625,-4.875 -1.92969,-1.21875 -4.57031,-1.726563 -2.64063,-0.609375 -5.6875,-0.8125 V 69.875 l 33.3125,-2.234375 1.42187,1.421875 v 14.117187 h 0.50781 q 6.29688,-8.226562 14.01563,-12.492187 7.71875,-4.265625 14.11719,-4.265625 6.39843,0 10.35937,4.164062 4.0625,4.164063 4.0625,11.171875 z M 614.3889,145.4375 q -6.29687,11.98437 -16.85937,19.09375 -10.5625,7.10937 -24.27344,7.10937 -12.08594,0 -21.22656,-4.26562 -9.03906,-4.26563 -14.92969,-11.57813 -5.89062,-7.3125 -8.83594,-17.0625 -2.84375,-9.75 -2.84375,-20.61718 0,-9.75 3.04688,-19.093753 3.14844,-9.445312 9.14062,-16.960937 5.78907,-7.210938 14.32032,-11.578125 8.63281,-4.46875 19.29687,-4.46875 10.96875,0 18.78906,3.453125 7.82032,3.453125 12.69532,9.445312 4.67187,5.6875 6.90625,13.40625 2.33593,7.718748 2.33593,16.757818 v 6.70312 h -66.32031 q 0,9.85156 1.82813,17.875 1.92968,8.02344 5.99218,14.11719 3.96094,5.89062 10.35938,9.34375 6.39844,3.35156 15.23437,3.35156 9.03907,0 15.53907,-4.16406 6.60156,-4.26563 12.69531,-15.23438 z M 591.94359,107.25 q 0,-5.6875 -1.01562,-12.1875 -0.91407,-6.5 -3.04688,-10.867188 -2.33594,-4.671875 -6.39844,-7.617187 -4.0625,-2.945313 -10.46093,-2.945313 -10.66407,0 -17.77344,8.9375 -7.00781,8.835938 -7.61719,24.679688 z m 62.61939,50.07031 q 0,5.6875 -4.16407,9.75 -4.0625,3.96094 -9.75,3.96094 -5.6875,0 -9.85156,-3.96094 -4.0625,-4.0625 -4.0625,-9.75 0,-5.6875 4.0625,-9.75 4.16406,-4.16406 9.85156,-4.16406 5.6875,0 9.75,4.16406 4.16407,4.0625 4.16407,9.75 z"
     id="text1"
     fill="#c87cff"
     aria-label="Aere." />
  <path
     d="m 185.83754,245.528 q -4.532,0 -7.964,-1.98 -3.432,-2.024 -5.368,-5.588 -1.936,-3.608 -1.936,-8.36 0,-4.708 1.936,-8.272 1.936,-3.608 5.368,-5.632 3.432,-2.024 7.964,-2.024 4.576,0 8.008,2.024 3.432,2.024 5.324,5.632 1.936,3.564 1.936,8.272 0,4.752 -1.936,8.36 -1.892,3.564 -5.324,5.588 -3.432,1.98 -8.008,1.98 z m 0,-3.916 q 3.212,0 5.632,-1.452 2.464,-1.452 3.784,-4.136 1.364,-2.684 1.364,-6.424 0,-3.74 -1.364,-6.424 -1.32,-2.684 -3.784,-4.092 -2.42,-1.452 -5.632,-1.452 -3.212,0 -5.632,1.452 -2.42,1.408 -3.784,4.092 -1.364,2.684 -1.364,6.424 0,3.74 1.364,6.424 1.364,2.684 3.784,4.136 2.42,1.452 5.632,1.452 z m 35.55517,3.388 -7.7,-30.8 h 4.576 l 6.556,27.764 h 0.176 l 7.48,-27.764 h 4.84 l 7.7,27.764 h 0.176 l 6.38,-27.764 h 4.576 l -7.744,30.8 h -6.688 l -6.776,-24.332 h -0.176 l -6.732,24.332 z m 48.96002,0 v -30.8 h 5.94 l 13.992,25.476 h 0.176 V 214.2 h 4.4 V 245 h -5.94 l -13.992,-25.432 h -0.176 V 245 Z m 69.672,0 v -10.912 l -10.164,-19.888 h 4.972 l 7.348,15.4 h 0.176 l 7.348,-15.4 h 4.796 l -10.076,19.888 V 245 Z m 41.40464,0.528 q -4.532,0 -7.964,-1.98 -3.432,-2.024 -5.368,-5.588 -1.936,-3.608 -1.936,-8.36 0,-4.708 1.936,-8.272 1.936,-3.608 5.368,-5.632 3.432,-2.024 7.964,-2.024 4.576,0 8.008,2.024 3.432,2.024 5.324,5.632 1.936,3.564 1.936,8.272 0,4.752 -1.936,8.36 -1.892,3.564 -5.324,5.588 -3.432,1.98 -8.008,1.98 z m 0,-3.916 q 3.212,0 5.632,-1.452 2.464,-1.452 3.784,-4.136 1.364,-2.684 1.364,-6.424 0,-3.74 -1.364,-6.424 -1.32,-2.684 -3.784,-4.092 -2.42,-1.452 -5.632,-1.452 -3.212,0 -5.632,1.452 -2.42,1.408 -3.784,4.092 -1.364,2.684 -1.364,6.424 0,3.74 1.364,6.424 1.364,2.684 3.784,4.136 2.42,1.452 5.632,1.452 z m 42.228,3.916 q -3.256,0 -5.94,-1.276 -2.64,-1.32 -4.18,-3.96 -1.54,-2.684 -1.54,-6.82 V 214.2 h 4.4 v 19.316 q 0,2.772 0.924,4.576 0.924,1.76 2.552,2.64 1.672,0.836 3.872,0.836 2.244,0 3.828,-0.836 1.628,-0.88 2.552,-2.64 0.924,-1.804 0.924,-4.576 V 214.2 h 4.4 v 19.272 q 0,4.136 -1.628,6.82 -1.584,2.64 -4.268,3.96 -2.64,1.276 -5.896,1.276 z M 451.18941,245 v -30.8 h 10.428 q 3.652,0 5.984,1.232 2.332,1.232 3.432,3.3 1.144,2.024 1.144,4.62 0,2.464 -1.144,4.576 -1.1,2.068 -3.476,3.344 -2.376,1.232 -6.072,1.232 h -5.896 V 245 Z m 16.192,0 -6.644,-13.684 h 4.84 l 6.908,13.684 z m -11.792,-15.84 h 5.72 q 3.3,0 4.796,-1.584 1.54,-1.628 1.54,-4.136 0,-2.552 -1.496,-4.048 -1.496,-1.496 -4.84,-1.496 h -5.72 z M 527.50547,245 v -30.8 h 4.4 V 245 Z m -19.58,0 v -30.8 h 4.4 V 245 Z m 3.652,-13.904 v -3.608 h 16.896 v 3.608 z M 547.8655,245 v -30.8 h 19.448 v 3.608 h -15.048 v 9.856 h 13.728 v 3.52 h -13.728 v 10.208 h 15.048 V 245 Z m 32.98798,0 10.296,-30.8 h 6.952 l 10.164,30.8 h -4.664 l -8.888,-27.852 h -0.176 l -9.064,27.852 z m 5.104,-9.372 1.232,-3.52 h 14.476 l 1.232,3.52 z M 621.74733,245 v -30.8 h 4.4 v 27.324 h 14.08 V 245 Z m 35.55515,0 v -27.192 h -9.152 V 214.2 h 22.66 v 3.608 h -9.152 V 245 Z m 47.28798,0 v -30.8 h 4.4 V 245 Z m -19.58,0 v -30.8 h 4.4 V 245 Z m 3.652,-13.904 v -3.608 h 16.896 v 3.608 z"
     id="text2"
     fill="#7a7770"
     aria-label="OWN YOUR HEALTH" />
</svg>
