<svg xmlns="http://www.w3.org/2000/svg" width="880" height="276" viewBox="0 0 880 276">
  <defs><linearGradient id="bg" x1="0%" y1="0%" x2="100%" y2="100%"><stop offset="0%" stop-color="#150E26"/><stop offset="50%" stop-color="#1C1033"/><stop offset="100%" stop-color="#0F0D1A"/></linearGradient></defs>
  <rect width="880" height="276" fill="url(#bg)"/>
  <path fill="#c87cff" aria-label="Aere." d="m 209.1203,152 v -2.08 l 5.2,-1.872 q 4.16,-1.664 6.448,-3.952 2.288,-2.496 3.744,-6.864 l 42.848,-122.928 h 17.68 l 42.224,123.76 q 1.664,4.576 3.744,7.072 2.08,2.288 6.448,3.952 l 2.496,0.832 V 152 h -52.832 v -2.08 l 3.12,-1.04 q 4.368,-1.664 5.2,-4.576 1.04,-3.12 -0.208,-7.28 l -9.776,-29.952 h -46.176 l -9.984,29.328 q -1.456,4.576 -1.04,7.28 0.624,2.704 4.992,4.368 l 4.576,1.872 V 152 Z m 31.616,-49.088 h 43.472 l -21.008,-64.688 z m 147.88783,-54.08 q 13.52,0 23.088,5.616 9.568,5.408 14.56,14.976 5.2,9.36 5.2,21.424 0,2.288 -0.208,4.784 -0.208,2.288 -0.832,4.16 h -61.984 q 0.208,22.464 7.904,32.448 7.904,9.776 23.296,9.776 10.4,0 16.848,-3.328 6.448,-3.328 12.064,-9.776 l 2.08,1.872 q -6.448,11.44 -17.264,17.888 -10.608,6.448 -25.584,6.448 -14.768,0 -26.208,-6.24 -11.44,-6.448 -17.888,-18.304 -6.448,-11.856 -6.448,-28.288 0,-17.056 7.488,-28.912 7.488,-12.064 19.136,-18.304 11.856,-6.24 24.752,-6.24 z m -0.624,4.16 q -6.032,0 -10.4,3.744 -4.16,3.536 -6.656,12.896 -2.288,9.152 -2.496,26 h 35.568 q 2.08,-22.672 -1.664,-32.656 -3.744,-9.984 -14.352,-9.984 z m 47.632,99.008 v -2.08 l 3.12,-0.832 q 4.16,-1.248 5.616,-3.744 1.664,-2.496 1.664,-6.448 V 73.792 q 0,-4.576 -1.664,-6.656 -1.456,-2.288 -5.616,-3.12 l -3.12,-0.832 v -2.08 l 35.776,-12.064 2.08,2.08 1.872,17.888 v 1.664 q 2.912,-5.824 7.488,-10.608 4.784,-4.992 10.4,-8.112 5.824,-3.12 11.44,-3.12 7.904,0 12.064,4.368 4.16,4.368 4.16,11.024 0,7.072 -4.16,11.024 -3.952,3.744 -9.568,3.744 -8.736,0 -15.392,-8.736 l -0.416,-0.416 q -2.08,-2.912 -4.784,-3.12 -2.704,-0.416 -4.992,2.496 -2.08,1.872 -3.536,4.576 -1.248,2.496 -2.496,5.824 v 58.032 q 0,8.32 7.28,10.4 l 6.656,1.872 V 152 Z M 569.99996,48.832 q 13.52,0 23.088,5.616 9.568,5.408 14.56,14.976 5.2,9.36 5.2,21.424 0,2.288 -0.208,4.784 -0.208,2.288 -0.832,4.16 h -61.984 q 0.208,22.464 7.904,32.448 7.904,9.776 23.296,9.776 10.4,0 16.848,-3.328 6.448,-3.328 12.064,-9.776 l 2.08,1.872 q -6.448,11.44 -17.264,17.888 -10.608,6.448 -25.584,6.448 -14.768,0 -26.208,-6.24 -11.44,-6.448 -17.888,-18.304 -6.448,-11.856 -6.448,-28.288 0,-17.056 7.488,-28.912 7.488,-12.064 19.136,-18.304 11.856,-6.24 24.752,-6.24 z m -0.624,4.16 q -6.032,0 -10.4,3.744 -4.16,3.536 -6.656,12.896 -2.288,9.152 -2.496,26 h 35.568 q 2.08,-22.672 -1.664,-32.656 -3.744,-9.984 -14.352,-9.984 z m 71.9679,102.128 q -7.488,0 -12.688,-5.2 -5.2,-5.2 -5.2,-12.48 0,-7.28 5.2,-12.688 5.2,-5.408 12.688,-5.408 7.488,0 12.688,5.408 5.2,5.408 5.2,12.688 0,7.28 -5.2,12.48 -5.2,5.2 -12.688,5.2 z"/>
  <path fill="#7a7770" aria-label="OWN YOUR HEALTH" d="m 165.12207,199.68359 q 1.95508,2.14844 2.98633,5.26368 1.05273,3.11523 1.05273,7.06835 0,3.95313 -1.07422,7.08985 -1.05273,3.11523 -2.96484,5.19922 -1.97656,2.16992 -4.68359,3.26562 -2.68555,1.09571 -6.14453,1.09571 -3.37305,0 -6.14454,-1.11719 -2.75,-1.11719 -4.68359,-3.24414 -1.93359,-2.12696 -2.98633,-5.22071 -1.03125,-3.09375 -1.03125,-7.06836 0,-3.91015 1.03125,-7.0039 1.03125,-3.11524 3.00781,-5.32813 1.89063,-2.10547 4.6836,-3.22265 2.81445,-1.11719 6.12305,-1.11719 3.4375,0 6.16601,1.13867 2.75,1.11719 4.66211,3.20117 z m -0.38672,12.33203 q 0,-6.23046 -2.79297,-9.60351 -2.79297,-3.39453 -7.62695,-3.39453 -4.87695,0 -7.66992,3.39453 -2.77149,3.37305 -2.77149,9.60351 0,6.29493 2.83594,9.64649 2.83594,3.33008 7.60547,3.33008 4.76953,0 7.58398,-3.33008 2.83594,-3.35156 2.83594,-9.64649 z M 225.13965,196.00977 216.8252,228 h -4.79102 L 205.30957,201.44531 198.73535,228 h -4.68359 l -8.46485,-31.99023 h 4.36133 l 6.72461,26.59765 6.61719,-26.59765 h 4.31836 l 6.68164,26.85546 6.68164,-26.85546 z M 267.81934,228 h -5.26368 L 247.3877,199.38281 V 228 h -3.97461 v -31.99023 h 6.5957 l 13.83594,26.125 v -26.125 h 3.97461 z m 70.62109,-31.99023 -11.25781,17.96093 V 228 h -4.25391 v -13.57813 l -11.30078,-18.4121 h 4.70508 l 8.74414,14.30859 8.83008,-14.30859 z m 39.84375,3.67382 q 1.95508,2.14844 2.98633,5.26368 1.05273,3.11523 1.05273,7.06835 0,3.95313 -1.07422,7.08985 -1.05273,3.11523 -2.96484,5.19922 -1.97656,2.16992 -4.68359,3.26562 -2.68555,1.09571 -6.14454,1.09571 -3.37304,0 -6.14453,-1.11719 -2.75,-1.11719 -4.68359,-3.24414 -1.93359,-2.12696 -2.98633,-5.22071 -1.03125,-3.09375 -1.03125,-7.06836 0,-3.91015 1.03125,-7.0039 1.03125,-3.11524 3.00781,-5.32813 1.89063,-2.10547 4.6836,-3.22265 2.81445,-1.11719 6.12304,-1.11719 3.4375,0 6.16602,1.13867 2.75,1.11719 4.66211,3.20117 z m -0.38672,12.33203 q 0,-6.23046 -2.79297,-9.60351 -2.79297,-3.39453 -7.62695,-3.39453 -4.87695,0 -7.66992,3.39453 -2.77149,3.37305 -2.77149,9.60351 0,6.29493 2.83594,9.64649 2.83594,3.33008 7.60547,3.33008 4.76953,0 7.58398,-3.33008 2.83594,-3.35156 2.83594,-9.64649 z m 47.25586,3.13672 q 0,3.48047 -0.77344,6.08008 -0.75195,2.57813 -2.49218,4.29688 -1.6543,1.63281 -3.86719,2.38476 -2.21289,0.75196 -5.15625,0.75196 -3.00781,0 -5.24219,-0.79493 -2.23437,-0.79492 -3.75977,-2.34179 -1.74023,-1.76172 -2.51367,-4.25391 -0.75195,-2.49219 -0.75195,-6.12305 v -19.14257 h 4.25391 v 19.35742 q 0,2.59961 0.34375,4.10351 0.36523,1.50391 1.20312,2.72852 0.94531,1.39648 2.55664,2.10547 1.63281,0.70898 3.91016,0.70898 2.29883,0 3.91015,-0.6875 1.61133,-0.70898 2.57813,-2.12695 0.83789,-1.22461 1.18164,-2.79297 0.36523,-1.58984 0.36523,-3.93164 v -19.46484 h 4.25391 z M 471.74316,228 h -5.52148 l -10.69922,-12.71875 h -5.99414 V 228 h -4.25391 v -31.99023 h 8.95899 q 2.90039,0 4.83398,0.38671 1.9336,0.36524 3.48047,1.33204 1.74024,1.0957 2.70703,2.77148 0.98828,1.6543 0.98828,4.21094 0,3.45898 -1.74023,5.80078 -1.74023,2.32031 -4.79102,3.50195 z m -9.94726,-22.98828 q 0,-1.375 -0.49414,-2.42774 -0.47266,-1.07421 -1.58985,-1.80468 -0.92382,-0.62305 -2.1914,-0.85938 -1.26758,-0.25781 -2.98633,-0.25781 h -5.00586 v 12.07422 h 4.29688 q 2.01953,0 3.52343,-0.34375 1.50391,-0.36524 2.55664,-1.33203 0.9668,-0.90235 1.41797,-2.0625 0.47266,-1.18164 0.47266,-2.98633 z M 539.80762,228 h -4.25391 V 212.33789 H 519.59082 V 228 h -4.25391 v -31.99023 h 4.25391 v 12.54687 h 15.96289 v -12.54687 h 4.25391 z m 41.66992,0 h -21.07617 v -31.99023 h 21.07617 v 3.78125 h -16.82227 v 8.76562 h 16.82227 v 3.78125 h -16.82227 v 11.88086 h 16.82227 z m 43.96875,0 h -4.5332 l -3.13672,-8.91602 H 603.94043 L 600.80371,228 h -4.31836 l 11.64453,-31.99023 h 5.67188 z m -8.98047,-12.56836 -5.60742,-15.70508 -5.62891,15.70508 z M 662.54004,228 h -20.23828 v -31.99023 h 4.2539 v 28.20898 h 15.98438 z m 35.41797,-28.20898 H 686.52832 V 228 h -4.25391 v -28.20898 h -11.42968 v -3.78125 h 27.11328 z M 738.72559,228 h -4.25391 V 212.33789 H 718.50879 V 228 h -4.25391 v -31.99023 h 4.25391 v 12.54687 h 15.96289 v -12.54687 h 4.25391 z"/>
</svg>
