<svg xmlns="http://www.w3.org/2000/svg" width="1200" height="630" viewBox="0 0 1200 630">
  <rect width="1200" height="630" fill="#1A1917"/>
  <path fill="#c87cff" d="m 459.60017,270 v -1.2 l 3,-1.08 q 2.4,-0.96 3.72,-2.28 1.32,-1.44 2.16,-3.96 l 24.72,-70.92 h 10.2 l 24.36,71.4 q 0.96,2.64 2.16,4.08 1.2,1.32 3.72,2.28 l 1.44,0.48 v 1.2 h -30.48 v -1.2 l 1.8,-0.6 q 2.52,-0.96 3,-2.64 0.6,-1.8 -0.12,-4.2 l -5.64,-17.28 h -26.64 l -5.76,16.92 q -0.84,2.64 -0.6,4.2 0.36,1.56 2.88,2.52 l 2.64,1.08 v 1.2 z m 18.24,-28.32 h 25.08 l -12.12,-37.32 z m 88.9199,-31.2 q 7.8,0 13.32,3.24 5.52,3.12 8.4,8.64 3,5.4 3,12.36 0,1.32 -0.12,2.76 -0.12,1.32 -0.48,2.4 h -35.76 q 0.12,12.96 4.56,18.72 4.56,5.64 13.44,5.64 6,0 9.72,-1.92 3.72,-1.92 6.96,-5.64 l 1.2,1.08 q -3.72,6.6 -9.96,10.32 -6.12,3.72 -14.76,3.72 -8.52,0 -15.12,-3.6 -6.6,-3.72 -10.32,-10.56 -3.72,-6.84 -3.72,-16.32 0,-9.84 4.32,-16.68 4.32,-6.96 11.04,-10.56 6.84,-3.6 14.28,-3.6 z m -0.36,2.4 q -3.48,0 -6,2.16 -2.4,2.04 -3.84,7.44 -1.32,5.28 -1.44,15 h 20.52 q 1.2,-13.08 -0.96,-18.84 -2.16,-5.76 -8.28,-5.76 z m 31.08,57.12 v -1.2 l 1.8,-0.48 q 2.4,-0.72 3.24,-2.16 0.96,-1.44 0.96,-3.72 v -37.56 q 0,-2.64 -0.96,-3.84 -0.84,-1.32 -3.24,-1.8 l -1.8,-0.48 v -1.2 l 20.64,-6.96 1.2,1.2 1.08,10.32 v 0.96 q 1.68,-3.36 4.32,-6.12 2.76,-2.88 6,-4.68 3.36,-1.8 6.6,-1.8 4.56,0 6.96,2.52 2.4,2.52 2.4,6.36 0,4.08 -2.4,6.36 -2.28,2.16 -5.52,2.16 -5.04,0 -8.88,-5.04 l -0.24,-0.24 q -1.2,-1.68 -2.76,-1.8 -1.56,-0.24 -2.88,1.44 -1.2,1.08 -2.04,2.64 -0.72,1.44 -1.44,3.36 v 33.48 q 0,4.8 4.2,6 l 3.84,1.08 v 1.2 z m 81.11991,-59.52 q 7.8,0 13.32,3.24 5.52,3.12 8.4,8.64 3,5.4 3,12.36 0,1.32 -0.12,2.76 -0.12,1.32 -0.48,2.4 h -35.76 q 0.12,12.96 4.56,18.72 4.56,5.64 13.44,5.64 6,0 9.72,-1.92 3.72,-1.92 6.96,-5.64 l 1.2,1.08 q -3.72,6.6 -9.96,10.32 -6.12,3.72 -14.76,3.72 -8.52,0 -15.12,-3.6 -6.6,-3.72 -10.32,-10.56 -3.72,-6.84 -3.72,-16.32 0,-9.84 4.32,-16.68 4.32,-6.96 11.04,-10.56 6.84,-3.6 14.28,-3.6 z m -0.36,2.4 q -3.48,0 -6,2.16 -2.4,2.04 -3.84,7.44 -1.32,5.28 -1.44,15 h 20.52 q 1.2,-13.08 -0.96,-18.84 -2.16,-5.76 -8.28,-5.76 z m 45.11994,58.92 q -4.32,0 -7.32,-3 -3,-3 -3,-7.2 0,-4.2 3,-7.32 3,-3.12 7.32,-3.12 4.32,0 7.32,3.12 3,3.12 3,7.32 0,4.2 -3,7.2 -3,3 -7.32,3 z"/>
  <path fill="#7a7770" d="m 481.44969,319.40625 q 1.42187,1.5625 2.17187,3.82812 0.76563,2.26563 0.76563,5.14063 0,2.875 -0.78125,5.15625 -0.76563,2.26562 -2.15625,3.78125 -1.4375,1.57812 -3.40625,2.375 -1.95313,0.79687 -4.46875,0.79687 -2.45313,0 -4.46875,-0.8125 -2,-0.8125 -3.40625,-2.35937 -1.40625,-1.54688 -2.17188,-3.79688 -0.75,-2.25 -0.75,-5.14062 0,-2.84375 0.75,-5.09375 0.75,-2.26563 2.1875,-3.875 1.375,-1.53125 3.40625,-2.34375 2.04688,-0.8125 4.45313,-0.8125 2.5,0 4.48437,0.82812 2,0.8125 3.39063,2.32813 z m -0.28125,8.96875 q 0,-4.53125 -2.03125,-6.98438 -2.03125,-2.46875 -5.54688,-2.46875 -3.54687,0 -5.57812,2.46875 -2.01563,2.45313 -2.01563,6.98438 0,4.57812 2.0625,7.01562 2.0625,2.42188 5.53125,2.42188 3.46875,0 5.51563,-2.42188 2.0625,-2.4375 2.0625,-7.01562 z M 511.65219,322.54687 507.10531,340 h -2.71875 L 499.90219,326.54687 495.44906,340 h -2.70312 l -4.59375,-17.45313 h 3.0625 l 3.20312,13.51563 4.35938,-13.51563 h 2.42187 l 4.46875,13.51563 3.03125,-13.51563 z M 531.12031,340 h -2.9375 v -9.9375 q 0,-1.20313 -0.14062,-2.25 -0.14063,-1.0625 -0.51563,-1.65625 -0.39062,-0.65625 -1.125,-0.96875 -0.73437,-0.32813 -1.90625,-0.32813 -1.20312,0 -2.51562,0.59375 -1.3125,0.59375 -2.51563,1.51563 V 340 h -2.9375 v -17.45313 h 2.9375 v 1.9375 q 1.375,-1.14062 2.84375,-1.78125 1.46875,-0.64062 3.01563,-0.64062 2.82812,0 4.3125,1.70312 1.48437,1.70313 1.48437,4.90625 z m 34.88938,-23.26563 -8.1875,13.0625 V 340 h -3.09375 v -9.875 l -8.21875,-13.39063 h 3.42187 l 6.35938,10.40625 6.42187,-10.40625 z m 16.46812,14.54688 q 0,4.26562 -2.1875,6.73437 -2.1875,2.46875 -5.85938,2.46875 -3.70312,0 -5.89062,-2.46875 -2.17188,-2.46875 -2.17188,-6.73437 0,-4.26563 2.17188,-6.73438 2.1875,-2.48437 5.89062,-2.48437 3.67188,0 5.85938,2.48437 2.1875,2.46875 2.1875,6.73438 z m -3.03125,0 q 0,-3.39063 -1.32813,-5.03125 -1.32812,-1.65625 -3.6875,-1.65625 -2.39062,0 -3.71875,1.65625 -1.3125,1.64062 -1.3125,5.03125 0,3.28125 1.32813,4.98437 1.32812,1.6875 3.70312,1.6875 2.34375,0 3.67188,-1.67187 1.34375,-1.6875 1.34375,-5 z M 602.13343,340 h -2.9375 v -1.9375 q -1.48437,1.17187 -2.84375,1.79687 -1.35937,0.625 -3,0.625 -2.75,0 -4.28125,-1.67187 -1.53125,-1.6875 -1.53125,-4.9375 v -11.32813 h 2.9375 v 9.9375 q 0,1.32813 0.125,2.28125 0.125,0.9375 0.53125,1.60938 0.42188,0.6875 1.09375,1 0.67188,0.3125 1.95313,0.3125 1.14062,0 2.48437,-0.59375 1.35938,-0.59375 2.53125,-1.51563 v -13.03125 h 2.9375 z m 17.31188,-14.25 h -0.15625 q -0.65625,-0.15625 -1.28125,-0.21875 -0.60938,-0.0781 -1.45313,-0.0781 -1.35937,0 -2.625,0.60938 -1.26562,0.59375 -2.4375,1.54687 V 340 h -2.9375 v -17.45313 h 2.9375 v 2.57813 q 1.75,-1.40625 3.07813,-1.98438 1.34375,-0.59375 2.73437,-0.59375 0.76563,0 1.10938,0.0469 0.34375,0.0312 1.03125,0.14062 z M 652.77218,340 h -3.09375 V 328.60937 H 638.06906 V 340 h -3.09375 v -23.26563 h 3.09375 v 9.125 h 11.60937 v -9.125 h 3.09375 z m 21.265,-8.42188 h -12.85937 q 0,1.60938 0.48437,2.8125 0.48438,1.1875 1.32813,1.95313 0.8125,0.75 1.92187,1.125 1.125,0.375 2.46875,0.375 1.78125,0 3.57813,-0.70313 1.8125,-0.71875 2.57812,-1.40625 h 0.15625 v 3.20313 q -1.48437,0.625 -3.03125,1.04687 -1.54687,0.42188 -3.25,0.42188 -4.34375,0 -6.78125,-2.34375 -2.4375,-2.35938 -2.4375,-6.6875 0,-4.28125 2.32813,-6.79688 2.34375,-2.51562 6.15625,-2.51562 3.53125,0 5.4375,2.0625 1.92187,2.0625 1.92187,5.85937 z m -2.85937,-2.25 q -0.0156,-2.3125 -1.17188,-3.57812 -1.14062,-1.26563 -3.48437,-1.26563 -2.35938,0 -3.76563,1.39063 -1.39062,1.39062 -1.57812,3.45312 z M 692.69281,340 h -2.92188 v -1.85938 q -0.39062,0.26563 -1.0625,0.75 -0.65625,0.46875 -1.28125,0.75 -0.73437,0.35938 -1.6875,0.59375 -0.95312,0.25 -2.23437,0.25 -2.35938,0 -4,-1.5625 -1.64063,-1.5625 -1.64063,-3.98437 0,-1.98438 0.84375,-3.20313 0.85938,-1.23437 2.4375,-1.9375 1.59375,-0.70312 3.82813,-0.95312 2.23437,-0.25 4.79687,-0.375 v -0.45313 q 0,-1 -0.35937,-1.65625 -0.34375,-0.65625 -1,-1.03125 -0.625,-0.35937 -1.5,-0.48437 -0.875,-0.125 -1.82813,-0.125 -1.15625,0 -2.57812,0.3125 -1.42188,0.29687 -2.9375,0.875 h -0.15625 v -2.98438 q 0.85937,-0.23437 2.48437,-0.51562 1.625,-0.28125 3.20313,-0.28125 1.84375,0 3.20312,0.3125 1.375,0.29687 2.375,1.03125 0.98438,0.71875 1.5,1.85937 0.51563,1.14063 0.51563,2.82813 z m -2.92188,-4.29688 v -4.85937 q -1.34375,0.0781 -3.17187,0.23437 -1.8125,0.15625 -2.875,0.45313 -1.26563,0.35937 -2.04688,1.125 -0.78125,0.75 -0.78125,2.07812 0,1.5 0.90625,2.26563 0.90625,0.75 2.76563,0.75 1.54687,0 2.82812,-0.59375 1.28125,-0.60938 2.375,-1.45313 z M 701.95781,340 h -2.9375 v -24.3125 h 2.9375 z m 15.51501,-0.15625 q -0.82813,0.21875 -1.8125,0.35937 -0.96875,0.14063 -1.73438,0.14063 -2.67187,0 -4.0625,-1.4375 -1.39062,-1.4375 -1.39062,-4.60938 v -9.28125 h -1.98438 v -2.46875 h 1.98438 v -5.01562 h 2.9375 v 5.01562 h 6.0625 v 2.46875 h -6.0625 v 7.95313 q 0,1.375 0.0625,2.15625 0.0625,0.76562 0.4375,1.4375 0.34375,0.625 0.9375,0.92187 0.60937,0.28125 1.84375,0.28125 0.71875,0 1.5,-0.20312 0.78125,-0.21875 1.125,-0.35938 h 0.15625 z M 736.25343,340 h -2.9375 v -9.9375 q 0,-1.20313 -0.14063,-2.25 -0.14062,-1.0625 -0.51562,-1.65625 -0.39063,-0.65625 -1.125,-0.96875 -0.73438,-0.32813 -1.90625,-0.32813 -1.20313,0 -2.51563,0.59375 -1.3125,0.59375 -2.51562,1.51563 V 340 h -2.9375 v -24.3125 h 2.9375 v 8.79687 q 1.375,-1.14062 2.84375,-1.78125 1.46875,-0.64062 3.01562,-0.64062 2.82813,0 4.3125,1.70312 1.48438,1.70313 1.48438,4.90625 z"/>
  <path fill="#4a4845" d="m 401.35762,375.89551 h -5.71485 V 390 h -2.12695 v -14.10449 h -5.71484 v -1.89063 h 13.55664 z M 413.81812,390 h -2.01953 v -6.83203 q 0,-0.82715 -0.0967,-1.54688 -0.0967,-0.73047 -0.35449,-1.13867 -0.26855,-0.45117 -0.77344,-0.66601 -0.50488,-0.22559 -1.31054,-0.22559 -0.82715,0 -1.7295,0.4082 -0.90234,0.40821 -1.72949,1.042 V 390 h -2.01953 v -16.71484 h 2.01953 v 6.04785 q 0.94532,-0.78418 1.95508,-1.22461 1.00977,-0.44043 2.07324,-0.44043 1.94434,0 2.96485,1.1709 1.0205,1.1709 1.0205,3.37304 z m 14.37262,-5.79004 h -8.84082 q 0,1.10645 0.33301,1.93359 0.33301,0.81641 0.91308,1.34278 0.5586,0.51562 1.32129,0.77344 0.77344,0.25781 1.69727,0.25781 1.22461,0 2.45996,-0.4834 1.24609,-0.49414 1.77246,-0.9668 h 0.10742 v 2.20215 q -1.0205,0.42969 -2.08398,0.71973 -1.06348,0.29004 -2.23438,0.29004 -2.98632,0 -4.66211,-1.61133 -1.67578,-1.62207 -1.67578,-4.59766 0,-2.94336 1.60059,-4.67285 1.61133,-1.72949 4.23242,-1.72949 2.42774,0 3.73828,1.41797 1.32129,1.41797 1.32129,4.02832 z m -1.96582,-1.54687 q -0.0107,-1.58985 -0.80566,-2.45997 -0.78418,-0.87011 -2.39551,-0.87011 -1.62207,0 -2.58887,0.95605 -0.95605,0.95606 -1.08496,2.37403 z M 452.26312,390 h -2.12695 v -7.83105 h -7.98145 V 390 h -2.12695 v -15.99512 h 2.12695 v 6.27344 h 7.98145 v -6.27344 h 2.12695 z m 14.61969,-5.79004 h -8.84082 q 0,1.10645 0.33301,1.93359 0.333,0.81641 0.91308,1.34278 0.5586,0.51562 1.32129,0.77344 0.77344,0.25781 1.69727,0.25781 1.22461,0 2.45996,-0.4834 1.24609,-0.49414 1.77246,-0.9668 h 0.10742 v 2.20215 q -1.02051,0.42969 -2.08398,0.71973 -1.06348,0.29004 -2.23438,0.29004 -2.98633,0 -4.66211,-1.61133 -1.67578,-1.62207 -1.67578,-4.59766 0,-2.94336 1.60059,-4.67285 1.61133,-1.72949 4.23242,-1.72949 2.42773,0 3.73828,1.41797 1.32129,1.41797 1.32129,4.02832 z m -1.96582,-1.54687 q -0.0107,-1.58985 -0.80566,-2.45997 -0.78418,-0.87011 -2.39551,-0.87011 -1.62207,0 -2.58887,0.95605 -0.95605,0.95606 -1.08496,2.37403 z M 479.70855,390 h -2.00878 v -1.27832 q -0.26856,0.18262 -0.73047,0.51562 -0.45118,0.32227 -0.88086,0.51563 -0.50489,0.24707 -1.16016,0.4082 -0.65527,0.17188 -1.53613,0.17188 -1.62207,0 -2.75,-1.07422 -1.12793,-1.07422 -1.12793,-2.73926 0,-1.36426 0.58008,-2.20215 0.59082,-0.84863 1.67578,-1.33203 1.0957,-0.4834 2.63183,-0.65527 1.53614,-0.17188 3.29786,-0.25781 v -0.31153 q 0,-0.6875 -0.24708,-1.13867 -0.23632,-0.45117 -0.6875,-0.70898 -0.42968,-0.24707 -1.03125,-0.33301 -0.60156,-0.0859 -1.25683,-0.0859 -0.79492,0 -1.77246,0.21484 -0.97754,0.20411 -2.01953,0.60157 h -0.10743 v -2.05176 q 0.59083,-0.16113 1.70801,-0.35449 1.11719,-0.19336 2.20215,-0.19336 1.26758,0 2.20215,0.21484 0.94531,0.2041 1.63281,0.70899 0.67676,0.49414 1.03125,1.27832 0.35449,0.78418 0.35449,1.94433 z m -2.00878,-2.9541 v -3.34082 q -0.92383,0.0537 -2.18067,0.16113 -1.24609,0.10742 -1.97656,0.31152 -0.87012,0.24707 -1.40723,0.77344 -0.53711,0.51563 -0.53711,1.42871 0,1.03125 0.62305,1.55762 0.62305,0.51562 1.90137,0.51562 1.06347,0 1.94433,-0.4082 0.88086,-0.41894 1.63282,-0.99902 z M 486.07824,390 h -2.01953 v -16.71484 h 2.01953 z m 10.66656,-0.10742 q -0.56933,0.15039 -1.24609,0.24707 -0.66602,0.0967 -1.19239,0.0967 -1.83691,0 -2.79296,-0.98828 -0.95606,-0.98828 -0.95606,-3.16895 v -6.38086 h -1.36426 v -1.69726 h 1.36426 v -3.44825 h 2.01953 v 3.44825 h 4.16797 v 1.69726 h -4.16797 v 5.46778 q 0,0.94531 0.043,1.48242 0.043,0.52636 0.30078,0.98828 0.23633,0.42969 0.64453,0.63379 0.41895,0.19336 1.26758,0.19336 0.49414,0 1.03125,-0.13965 0.53711,-0.15039 0.77344,-0.24707 h 0.10742 z M 509.65648,390 h -2.01953 v -6.83203 q 0,-0.82715 -0.0967,-1.54688 -0.0967,-0.73047 -0.35449,-1.13867 -0.26855,-0.45117 -0.77344,-0.66601 -0.50488,-0.22559 -1.31054,-0.22559 -0.82715,0 -1.7295,0.4082 -0.90234,0.40821 -1.72949,1.042 V 390 h -2.01953 v -16.71484 h 2.01953 v 6.04785 q 0.94531,-0.78418 1.95508,-1.22461 1.00977,-0.44043 2.07324,-0.44043 1.94434,0 2.96485,1.1709 1.0205,1.1709 1.0205,3.37304 z m 12.90094,-3.45898 q 0,1.64355 -1.36425,2.69628 -1.35352,1.05274 -3.70606,1.05274 -1.33203,0 -2.44922,-0.31152 -1.10644,-0.32227 -1.8584,-0.69825 v -2.2666 h 0.10743 q 0.95605,0.71973 2.12695,1.14942 1.1709,0.41894 2.24512,0.41894 1.33203,0 2.08398,-0.42969 0.75195,-0.42968 0.75195,-1.35351 0,-0.70899 -0.4082,-1.07422 -0.4082,-0.36524 -1.56836,-0.62305 -0.42969,-0.0967 -1.12793,-0.22558 -0.6875,-0.12891 -1.25683,-0.2793 -1.57911,-0.41895 -2.24512,-1.22461 -0.65528,-0.81641 -0.65528,-1.99805 0,-0.74121 0.30079,-1.39648 0.31152,-0.65527 0.93457,-1.1709 0.60156,-0.50488 1.52539,-0.79492 0.93457,-0.30078 2.08398,-0.30078 1.07422,0 2.16992,0.26855 1.10645,0.25781 1.83692,0.63379 v 2.15918 h -0.10742 q -0.77344,-0.56934 -1.87989,-0.95605 -1.10644,-0.39746 -2.16992,-0.39746 -1.10644,0 -1.86914,0.42968 -0.7627,0.41895 -0.7627,1.25684 0,0.74121 0.46192,1.11719 0.45117,0.37597 1.46094,0.6123 0.55859,0.12891 1.24609,0.25781 0.69824,0.12891 1.16016,0.23633 1.40722,0.32227 2.16992,1.10645 0.76269,0.79492 0.76269,2.10547 z m 13.88922,-2.68555 q 0,1.46094 -0.41895,2.6748 -0.41894,1.20313 -1.18164,2.04102 -0.70898,0.79492 -1.67578,1.23535 -0.95605,0.42969 -2.03027,0.42969 -0.93457,0 -1.69727,-0.2041 -0.75195,-0.20411 -1.53613,-0.63379 v 5.02734 h -2.01953 v -16.4248 h 2.01953 v 1.25683 q 0.80566,-0.67676 1.80469,-1.12793 1.00976,-0.46191 2.14843,-0.46191 2.16992,0 3.37305,1.64355 1.21387,1.63282 1.21387,4.54395 z m -2.08399,0.0537 q 0,-2.16992 -0.74121,-3.24414 -0.74121,-1.07422 -2.27734,-1.07422 -0.87012,0 -1.75098,0.37598 -0.88086,0.37597 -1.68652,0.98828 v 6.7998 q 0.85937,0.38672 1.47168,0.52637 0.62304,0.13965 1.40722,0.13965 1.68653,0 2.63184,-1.13867 0.94531,-1.13868 0.94531,-3.37305 z M 549.35832,390 h -2.00879 v -1.27832 q -0.26855,0.18262 -0.73047,0.51562 -0.45117,0.32227 -0.88086,0.51563 -0.50488,0.24707 -1.16015,0.4082 -0.65528,0.17188 -1.53614,0.17188 -1.62207,0 -2.75,-1.07422 -1.12793,-1.07422 -1.12793,-2.73926 0,-1.36426 0.58008,-2.20215 0.59082,-0.84863 1.67578,-1.33203 1.09571,-0.4834 2.63184,-0.65527 1.53613,-0.17188 3.29785,-0.25781 v -0.31153 q 0,-0.6875 -0.24707,-1.13867 -0.23633,-0.45117 -0.6875,-0.70898 -0.42969,-0.24707 -1.03125,-0.33301 -0.60156,-0.0859 -1.25684,-0.0859 -0.79492,0 -1.77246,0.21484 -0.97754,0.20411 -2.01953,0.60157 h -0.10742 v -2.05176 q 0.59082,-0.16113 1.70801,-0.35449 1.11719,-0.19336 2.20215,-0.19336 1.26757,0 2.20214,0.21484 0.94532,0.2041 1.63282,0.70899 0.67675,0.49414 1.03125,1.27832 0.35449,0.78418 0.35449,1.94433 z m -2.00879,-2.9541 v -3.34082 q -0.92383,0.0537 -2.18066,0.16113 -1.2461,0.10742 -1.97657,0.31152 -0.87011,0.24707 -1.40722,0.77344 -0.53711,0.51563 -0.53711,1.42871 0,1.03125 0.62304,1.55762 0.62305,0.51562 1.90137,0.51562 1.06348,0 1.94434,-0.4082 0.88086,-0.41894 1.63281,-0.99902 z M 563.7202,390 h -2.01953 v -6.83203 q 0,-0.82715 -0.0967,-1.54688 -0.0967,-0.73047 -0.3545,-1.13867 -0.26855,-0.45117 -0.77343,-0.66601 -0.50489,-0.22559 -1.31055,-0.22559 -0.82715,0 -1.72949,0.4082 -0.90235,0.40821 -1.7295,1.042 V 390 h -2.01953 v -11.99902 h 2.01953 v 1.33203 q 0.94532,-0.78418 1.95508,-1.22461 1.00977,-0.44043 2.07325,-0.44043 1.94433,0 2.96484,1.1709 1.02051,1.1709 1.02051,3.37304 z m 18.30383,0 h -6.31641 v -1.63281 h 2.09473 V 375.6377 h -2.09473 v -1.63282 h 6.31641 v 1.63282 h -2.09473 v 12.72949 h 2.09473 z m 13.93217,0 h -2.01953 v -6.83203 q 0,-0.82715 -0.0967,-1.54688 -0.0967,-0.73047 -0.35449,-1.13867 -0.26855,-0.45117 -0.77344,-0.66601 -0.50488,-0.22559 -1.31054,-0.22559 -0.82715,0 -1.7295,0.4082 -0.90234,0.40821 -1.72949,1.042 V 390 H 585.923 v -11.99902 h 2.01953 v 1.33203 q 0.94531,-0.78418 1.95508,-1.22461 1.00977,-0.44043 2.07324,-0.44043 1.94434,0 2.96485,1.1709 1.0205,1.1709 1.0205,3.37304 z m 10.55915,-0.10742 q -0.56934,0.15039 -1.2461,0.24707 -0.66601,0.0967 -1.19238,0.0967 -1.83691,0 -2.79297,-0.98828 -0.95605,-0.98828 -0.95605,-3.16895 v -6.38086 h -1.36426 v -1.69726 h 1.36426 v -3.44825 h 2.01953 v 3.44825 h 4.16797 v 1.69726 h -4.16797 v 5.46778 q 0,0.94531 0.043,1.48242 0.043,0.52636 0.30078,0.98828 0.23633,0.42969 0.64453,0.63379 0.41895,0.19336 1.26758,0.19336 0.49414,0 1.03125,-0.13965 0.53711,-0.15039 0.77344,-0.24707 h 0.10742 z m 12.92242,-5.68262 h -8.84082 q 0,1.10645 0.33301,1.93359 0.33301,0.81641 0.91309,1.34278 0.55859,0.51562 1.32128,0.77344 0.77344,0.25781 1.69727,0.25781 1.22461,0 2.45996,-0.4834 1.24609,-0.49414 1.77246,-0.9668 h 0.10742 v 2.20215 q -1.0205,0.42969 -2.08398,0.71973 -1.06348,0.29004 -2.23438,0.29004 -2.98632,0 -4.66211,-1.61133 -1.67578,-1.62207 -1.67578,-4.59766 0,-2.94336 1.60059,-4.67285 1.61133,-1.72949 4.23242,-1.72949 2.42774,0 3.73828,1.41797 1.32129,1.41797 1.32129,4.02832 z m -1.96582,-1.54687 q -0.0107,-1.58985 -0.80566,-2.45997 -0.78418,-0.87011 -2.39551,-0.87011 -1.62207,0 -2.58887,0.95605 -0.95605,0.95606 -1.08496,2.37403 z M 624.98031,390 h -2.01953 v -16.71484 h 2.01953 z m 6.47711,0 h -2.01953 v -16.71484 h 2.01953 z m 6.60602,-14.00781 h -2.27734 v -2.09473 h 2.27734 z M 637.93454,390 h -2.01953 v -11.99902 h 2.01953 z m 14.1685,-1.36426 q 0,3.05078 -1.38574,4.47949 -1.38574,1.42872 -4.26465,1.42872 -0.95606,0 -1.86914,-0.13965 -0.90235,-0.12891 -1.7832,-0.37598 v -2.0625 h 0.10742 q 0.49414,0.19336 1.56836,0.47266 1.07422,0.29004 2.14843,0.29004 1.03125,0 1.70801,-0.24707 0.67676,-0.24708 1.05274,-0.6875 0.37597,-0.41895 0.53711,-1.00977 0.16113,-0.59082 0.16113,-1.32129 v -1.0957 q -0.91309,0.73047 -1.75098,1.0957 -0.82715,0.35449 -2.11621,0.35449 -2.14844,0 -3.41601,-1.54687 -1.25684,-1.55762 -1.25684,-4.38281 0,-1.54688 0.42969,-2.66407 0.44043,-1.12793 1.19238,-1.94433 0.69824,-0.7627 1.69727,-1.18164 0.99902,-0.42969 1.9873,-0.42969 1.04199,0 1.74023,0.21484 0.70899,0.2041 1.49317,0.63379 l 0.1289,-0.51562 h 1.89063 z m -2.01953,-1.93359 v -6.54199 q -0.80567,-0.36524 -1.50391,-0.51563 -0.6875,-0.16113 -1.375,-0.16113 -1.66504,0 -2.62109,1.11719 -0.95606,1.11718 -0.95606,3.24414 0,2.01953 0.70899,3.06152 0.70898,1.04199 2.35254,1.04199 0.88086,0 1.76172,-0.33301 0.8916,-0.34375 1.63281,-0.91308 z m 16.47809,-2.49219 h -8.84082 q 0,1.10645 0.333,1.93359 0.33301,0.81641 0.91309,1.34278 0.55859,0.51562 1.32129,0.77344 0.77344,0.25781 1.69726,0.25781 1.22461,0 2.45997,-0.4834 1.24609,-0.49414 1.77246,-0.9668 h 0.10742 v 2.20215 q -1.02051,0.42969 -2.08399,0.71973 -1.06347,0.29004 -2.23437,0.29004 -2.98633,0 -4.66211,-1.61133 -1.67578,-1.62207 -1.67578,-4.59766 0,-2.94336 1.60058,-4.67285 1.61133,-1.72949 4.23243,-1.72949 2.42773,0 3.73828,1.41797 1.32129,1.41797 1.32129,4.02832 z m -1.96582,-1.54687 q -0.0108,-1.58985 -0.80567,-2.45997 -0.78418,-0.87011 -2.39551,-0.87011 -1.62207,0 -2.58886,0.95605 -0.95606,0.95606 -1.08496,2.37403 z M 680.09633,390 h -2.01954 v -6.83203 q 0,-0.82715 -0.0967,-1.54688 -0.0967,-0.73047 -0.35449,-1.13867 -0.26855,-0.45117 -0.77343,-0.66601 -0.50489,-0.22559 -1.31055,-0.22559 -0.82715,0 -1.72949,0.4082 -0.90235,0.40821 -1.7295,1.042 V 390 h -2.01953 v -11.99902 h 2.01953 v 1.33203 q 0.94532,-0.78418 1.95508,-1.22461 1.00977,-0.44043 2.07324,-0.44043 1.94434,0 2.96485,1.1709 1.02051,1.1709 1.02051,3.37304 z m 13.20172,-0.75195 q -1.00977,0.4834 -1.92285,0.75195 -0.90235,0.26855 -1.92286,0.26855 -1.2998,0 -2.38476,-0.37597 -1.08496,-0.38672 -1.8584,-1.16016 -0.78418,-0.77344 -1.21387,-1.95508 -0.42968,-1.18164 -0.42968,-2.76074 0,-2.94336 1.61132,-4.61914 1.62207,-1.67578 4.27539,-1.67578 1.03125,0 2.01954,0.29004 0.99902,0.29004 1.82617,0.70898 v 2.24512 h -0.10742 q -0.92383,-0.71973 -1.91211,-1.10645 -0.97754,-0.38671 -1.91211,-0.38671 -1.71875,0 -2.71778,1.16015 -0.98828,1.14942 -0.98828,3.38379 0,2.16992 0.9668,3.34082 0.97754,1.16016 2.73926,1.16016 0.6123,0 1.24609,-0.16113 0.63379,-0.16114 1.13867,-0.41895 0.44043,-0.22559 0.82715,-0.47266 0.38672,-0.25781 0.61231,-0.44043 h 0.10742 z m 13.07281,-5.03809 h -8.84082 q 0,1.10645 0.33301,1.93359 0.33301,0.81641 0.91309,1.34278 0.55859,0.51562 1.32128,0.77344 0.77344,0.25781 1.69727,0.25781 1.22461,0 2.45996,-0.4834 1.24609,-0.49414 1.77246,-0.9668 h 0.10742 v 2.20215 q -1.0205,0.42969 -2.08398,0.71973 -1.06348,0.29004 -2.23438,0.29004 -2.98632,0 -4.66211,-1.61133 -1.67578,-1.62207 -1.67578,-4.59766 0,-2.94336 1.60059,-4.67285 1.61133,-1.72949 4.23242,-1.72949 2.42774,0 3.73828,1.41797 1.32129,1.41797 1.32129,4.02832 z m -1.96582,-1.54687 q -0.0107,-1.58985 -0.80566,-2.45997 -0.78418,-0.87011 -2.39551,-0.87011 -1.62207,0 -2.58887,0.95605 -0.95605,0.95606 -1.08496,2.37403 z m 24.26575,-3.82422 q 0,1.06347 -0.37598,1.97656 -0.36523,0.90234 -1.03125,1.56836 -0.82715,0.82715 -1.95508,1.24609 -1.12793,0.40821 -2.84668,0.40821 h -2.12695 V 390 h -2.12695 v -15.99512 h 4.33984 q 1.43945,0 2.43848,0.24707 0.99902,0.23633 1.77246,0.75196 0.91309,0.6123 1.40723,1.52539 0.50488,0.91308 0.50488,2.30957 z m -2.21289,0.0537 q 0,-0.82715 -0.29004,-1.43946 -0.29004,-0.6123 -0.88086,-0.99902 -0.51563,-0.33301 -1.18164,-0.47265 -0.65527,-0.1504 -1.66504,-0.1504 h -2.10547 v 6.39161 h 1.79395 q 1.28906,0 2.09472,-0.22559 0.80567,-0.23633 1.31055,-0.74121 0.50488,-0.51563 0.70898,-1.08496 0.21485,-0.56934 0.21485,-1.27832 z M 733.79438,390 h -2.01953 v -16.71484 h 2.01953 z m 13.76032,0 h -2.00879 v -1.27832 q -0.26855,0.18262 -0.73047,0.51562 -0.45117,0.32227 -0.88086,0.51563 -0.50488,0.24707 -1.16015,0.4082 -0.65528,0.17188 -1.53614,0.17188 -1.62207,0 -2.75,-1.07422 -1.12793,-1.07422 -1.12793,-2.73926 0,-1.36426 0.58008,-2.20215 0.59082,-0.84863 1.67578,-1.33203 1.09571,-0.4834 2.63184,-0.65527 1.53613,-0.17188 3.29785,-0.25781 v -0.31153 q 0,-0.6875 -0.24707,-1.13867 -0.23633,-0.45117 -0.6875,-0.70898 -0.42969,-0.24707 -1.03125,-0.33301 -0.60156,-0.0859 -1.25684,-0.0859 -0.79492,0 -1.77246,0.21484 -0.97754,0.20411 -2.01953,0.60157 h -0.10742 v -2.05176 q 0.59082,-0.16113 1.70801,-0.35449 1.11719,-0.19336 2.20215,-0.19336 1.26757,0 2.20215,0.21484 0.94531,0.2041 1.63281,0.70899 0.67676,0.49414 1.03125,1.27832 0.35449,0.78418 0.35449,1.94433 z m -2.00879,-2.9541 v -3.34082 q -0.92383,0.0537 -2.18066,0.16113 -1.2461,0.10742 -1.97657,0.31152 -0.87011,0.24707 -1.40722,0.77344 -0.53711,0.51563 -0.53711,1.42871 0,1.03125 0.62305,1.55762 0.62304,0.51562 1.90136,0.51562 1.06348,0 1.94434,-0.4082 0.88086,-0.41894 1.63281,-0.99902 z m 12.56793,2.84668 q -0.56933,0.15039 -1.24609,0.24707 -0.66602,0.0967 -1.19238,0.0967 -1.83692,0 -2.79297,-0.98828 -0.95606,-0.98828 -0.95606,-3.16895 v -6.38086 h -1.36425 v -1.69726 h 1.36425 v -3.44825 h 2.01953 v 3.44825 h 4.16797 v 1.69726 h -4.16797 v 5.46778 q 0,0.94531 0.043,1.48242 0.043,0.52636 0.30078,0.98828 0.23633,0.42969 0.64454,0.63379 0.41894,0.19336 1.26757,0.19336 0.49414,0 1.03125,-0.13965 0.53711,-0.15039 0.77344,-0.24707 h 0.10742 z m 9.33451,-14.65235 h -0.10743 q -0.333,-0.0967 -0.87011,-0.19336 -0.53711,-0.10742 -0.94532,-0.10742 -1.2998,0 -1.89062,0.58008 -0.58008,0.56934 -0.58008,2.07324 v 0.40821 h 3.6416 v 1.69726 h -3.57715 V 390 h -2.01953 v -10.30176 h -1.36425 v -1.69726 h 1.36425 v -0.39746 q 0,-2.1377 1.06348,-3.27637 1.06348,-1.14942 3.07227,-1.14942 0.67675,0 1.21386,0.0645 0.54785,0.0645 0.99903,0.15039 z m 11.94488,8.76563 q 0,2.93262 -1.50391,4.62988 -1.5039,1.69727 -4.02832,1.69727 -2.54589,0 -4.0498,-1.69727 -1.49316,-1.69726 -1.49316,-4.62988 0,-2.93262 1.49316,-4.62988 1.50391,-1.70801 4.0498,-1.70801 2.52442,0 4.02832,1.70801 1.50391,1.69726 1.50391,4.62988 z m -2.08398,0 q 0,-2.33106 -0.91309,-3.45899 -0.91309,-1.13867 -2.53516,-1.13867 -1.64355,0 -2.55664,1.13867 -0.90234,1.12793 -0.90234,3.45899 0,2.25586 0.91309,3.42676 0.91308,1.16015 2.54589,1.16015 1.61133,0 2.52442,-1.14941 0.92383,-1.16016 0.92383,-3.4375 z m 13.13726,-3.80274 h -0.10742 q -0.45117,-0.10742 -0.88086,-0.15039 -0.41894,-0.0537 -0.99902,-0.0537 -0.93457,0 -1.80469,0.41895 -0.87011,0.4082 -1.67578,1.06348 V 390 h -2.01953 v -11.99902 h 2.01953 v 1.77246 q 1.20313,-0.9668 2.11621,-1.36426 0.92383,-0.4082 1.87989,-0.4082 0.52636,0 0.76269,0.0322 0.23633,0.0215 0.70898,0.0967 z M 810.29765,390 h -2.01953 v -6.83203 q 0,-0.77344 -0.0752,-1.49317 -0.0644,-0.71972 -0.29004,-1.14941 -0.24707,-0.46191 -0.70898,-0.69824 -0.46191,-0.23633 -1.33203,-0.23633 -0.84863,0 -1.69727,0.42969 -0.84863,0.41894 -1.69726,1.07422 0.0322,0.24707 0.0537,0.58007 0.0215,0.32227 0.0215,0.64454 V 390 H 800.533 v -6.83203 q 0,-0.79492 -0.0752,-1.50391 -0.0645,-0.71972 -0.29004,-1.14941 -0.24707,-0.46192 -0.70899,-0.6875 -0.46191,-0.23633 -1.33203,-0.23633 -0.82715,0 -1.66504,0.4082 -0.82715,0.40821 -1.65429,1.042 V 390 h -2.01954 v -11.99902 h 2.01954 v 1.33203 q 0.94531,-0.78418 1.87988,-1.22461 0.94531,-0.44043 2.00879,-0.44043 1.22461,0 2.07324,0.51562 0.85937,0.51563 1.27832,1.42871 1.22461,-1.03125 2.23438,-1.48242 1.00976,-0.46191 2.15917,-0.46191 1.97657,0 2.91114,1.20312 0.94531,1.19239 0.94531,3.34082 z"/>
</svg>