<?xml version="1.0" encoding="UTF-8" standalone="no"?>
<svg
   width="1200"
   height="630"
   viewBox="0 0 1200 630"
   version="1.1"
   id="svg3"
   sodipodi:docname="og-image.svg"
   xmlns:inkscape="http://www.inkscape.org/namespaces/inkscape"
   xmlns:sodipodi="http://sodipodi.sourceforge.net/DTD/sodipodi-0.dtd"
   xmlns="http://www.w3.org/2000/svg"
   xmlns:svg="http://www.w3.org/2000/svg">
  <defs
     id="defs3" />
  <sodipodi:namedview
     id="namedview3"
     pagecolor="#ffffff"
     bordercolor="#000000"
     borderopacity="0.25"
     inkscape:showpageshadow="2"
     inkscape:pageopacity="0.0"
     inkscape:pagecheckerboard="0"
     inkscape:deskcolor="#d1d1d1" />
  
  <rect
     width="1200"
     height="630"
     fill="#1A1917"
     id="rect1" />
  <path
     d="m 466.80017,280 v -1.2 l 3,-1.08 q 2.4,-0.96 3.72,-2.28 1.32,-1.44 2.16,-3.96 l 24.72,-70.92 h 10.2 l 24.36,71.4 q 0.96,2.64 2.16,4.08 1.2,1.32 3.72,2.28 l 1.44,0.48 v 1.2 h -30.48 v -1.2 l 1.8,-0.6 q 2.52,-0.96 3,-2.64 0.6,-1.8 -0.12,-4.2 l -5.64,-17.28 h -26.64 l -5.76,16.92 q -0.84,2.64 -0.6,4.2 0.36,1.56 2.88,2.52 l 2.64,1.08 v 1.2 z m 18.24,-28.32 h 25.08 l -12.12,-37.32 z m 85.31991,-31.2 q 7.8,0 13.32,3.24 5.52,3.12 8.4,8.64 3,5.4 3,12.36 0,1.32 -0.12,2.76 -0.12,1.32 -0.48,2.4 h -35.76 q 0.12,12.96 4.56,18.72 4.56,5.64 13.44,5.64 6,0 9.72,-1.92 3.72,-1.92 6.96,-5.64 l 1.2,1.08 q -3.72,6.6 -9.96,10.32 -6.12,3.72 -14.76,3.72 -8.52,0 -15.12,-3.6 -6.6,-3.72 -10.32,-10.56 -3.72,-6.84 -3.72,-16.32 0,-9.84 4.32,-16.68 4.32,-6.96 11.04,-10.56 6.84,-3.6 14.28,-3.6 z m -0.36,2.4 q -3.48,0 -6,2.16 -2.4,2.04 -3.84,7.44 -1.32,5.28 -1.44,15 h 20.52 q 1.2,-13.08 -0.96,-18.84 -2.16,-5.76 -8.28,-5.76 z M 597.48007,280 v -1.2 l 1.8,-0.48 q 2.4,-0.72 3.24,-2.16 0.96,-1.44 0.96,-3.72 v -37.56 q 0,-2.64 -0.96,-3.84 -0.84,-1.32 -3.24,-1.8 l -1.8,-0.48 v -1.2 l 20.64,-6.96 1.2,1.2 1.08,10.32 v 0.96 q 1.68,-3.36 4.32,-6.12 2.76,-2.88 6,-4.68 3.36,-1.8 6.6,-1.8 4.56,0 6.96,2.52 2.4,2.52 2.4,6.36 0,4.08 -2.4,6.36 -2.28,2.16 -5.52,2.16 -5.04,0 -8.88,-5.04 l -0.24,-0.24 q -1.2,-1.68 -2.76,-1.8 -1.56,-0.24 -2.88,1.44 -1.2,1.08 -2.04,2.64 -0.72,1.44 -1.44,3.36 v 33.48 q 0,4.8 4.2,6 l 3.84,1.08 v 1.2 z m 77.51991,-59.52 q 7.8,0 13.32,3.24 5.52,3.12 8.4,8.64 3,5.4 3,12.36 0,1.32 -0.12,2.76 -0.12,1.32 -0.48,2.4 h -35.76 q 0.12,12.96 4.56,18.72 4.56,5.64 13.44,5.64 6,0 9.72,-1.92 3.72,-1.92 6.96,-5.64 l 1.2,1.08 q -3.72,6.6 -9.96,10.32 -6.12,3.72 -14.76,3.72 -8.52,0 -15.12,-3.6 -6.6,-3.72 -10.32,-10.56 -3.72,-6.84 -3.72,-16.32 0,-9.84 4.32,-16.68 4.32,-6.96 11.04,-10.56 6.84,-3.6 14.28,-3.6 z m -0.36,2.4 q -3.48,0 -6,2.16 -2.4,2.04 -3.84,7.44 -1.32,5.28 -1.44,15 h 20.52 q 1.2,-13.08 -0.96,-18.84 -2.16,-5.76 -8.28,-5.76 z m 41.51994,58.92 q -4.32,0 -7.32,-3 -3,-3 -3,-7.2 0,-4.2 3,-7.32 3,-3.12 7.32,-3.12 4.32,0 7.32,3.12 3,3.12 3,7.32 0,4.2 -3,7.2 -3,3 -7.32,3 z"
     id="text1"
     fill="#c87cff"
     aria-label="Aere." />
  <path
     d="m 480.58848,321.98047 q 1.24414,1.36719 1.90039,3.34961 0.66992,1.98242 0.66992,4.49804 0,2.51563 -0.68359,4.51172 -0.66993,1.98243 -1.88672,3.3086 -1.25782,1.38086 -2.98047,2.07812 -1.70899,0.69727 -3.91016,0.69727 -2.14648,0 -3.91015,-0.71094 -1.75,-0.71094 -2.98047,-2.06445 -1.23047,-1.35352 -1.90039,-3.32227 -0.65625,-1.96875 -0.65625,-4.49805 0,-2.48828 0.65625,-4.45703 0.65625,-1.98242 1.91406,-3.39062 1.20312,-1.33985 2.98047,-2.05078 1.79101,-0.71094 3.89648,-0.71094 2.1875,0 3.92383,0.72461 1.75,0.71094 2.9668,2.03711 z m -0.2461,7.84765 q 0,-3.96484 -1.77734,-6.11132 -1.77734,-2.16016 -4.85352,-2.16016 -3.10351,0 -4.88086,2.16016 -1.76367,2.14648 -1.76367,6.11132 0,4.00586 1.80469,6.13868 1.80469,2.11914 4.83984,2.11914 3.03516,0 4.82618,-2.11914 1.80468,-2.13282 1.80468,-6.13868 z m 28.91328,-5.0996 L 505.27715,340 h -2.37891 L 498.97441,328.22852 495.07793,340 h -2.36524 l -4.01953,-15.27148 h 2.67969 l 2.80274,11.82617 3.81445,-11.82617 h 2.11914 l 3.91016,11.82617 2.65234,-11.82617 z M 528.53027,340 h -2.57031 v -8.69531 q 0,-1.05274 -0.12305,-1.96875 -0.12304,-0.92969 -0.45117,-1.44922 -0.3418,-0.57422 -0.98437,-0.84766 -0.64258,-0.28711 -1.66797,-0.28711 -1.05274,0 -2.20117,0.51953 -1.14844,0.51954 -2.20118,1.32618 V 340 h -2.57031 v -15.27148 h 2.57031 v 1.69531 q 1.20313,-0.99805 2.48828,-1.5586 1.28516,-0.56054 2.63868,-0.56054 2.47461,0 3.77343,1.49023 1.29883,1.49024 1.29883,4.29297 z m 35.0082,-20.35742 -7.16406,11.42969 V 340 h -2.70703 v -8.64063 l -7.19141,-11.71679 h 2.99414 l 5.56446,9.10547 5.61914,-9.10547 z m 16.64962,12.72851 q 0,3.73243 -1.91407,5.89258 -1.91406,2.16016 -5.12695,2.16016 -3.24023,0 -5.1543,-2.16016 -1.90039,-2.16015 -1.90039,-5.89258 0,-3.73242 1.90039,-5.89257 1.91407,-2.17383 5.1543,-2.17383 3.21289,0 5.12695,2.17383 1.91407,2.16015 1.91407,5.89257 z m -2.65235,0 q 0,-2.96679 -1.16211,-4.40234 -1.16211,-1.44922 -3.22656,-1.44922 -2.0918,0 -3.25391,1.44922 -1.14843,1.43555 -1.14843,4.40234 0,2.8711 1.16211,4.36133 1.16211,1.47656 3.24023,1.47656 2.05078,0 3.21289,-1.46289 1.17578,-1.47656 1.17578,-4.375 z M 599.62676,340 h -2.57031 v -1.69531 q -1.29883,1.02539 -2.48828,1.57226 -1.18946,0.54688 -2.625,0.54688 -2.40625,0 -3.7461,-1.46289 -1.33984,-1.47657 -1.33984,-4.32032 v -9.9121 h 2.57031 v 8.69531 q 0,1.16211 0.10938,1.99609 0.10937,0.82031 0.46484,1.4082 0.36914,0.60157 0.95703,0.875 0.58789,0.27344 1.70899,0.27344 0.99804,0 2.17382,-0.51953 1.18946,-0.51953 2.21485,-1.32617 v -11.40234 h 2.57031 z m 17.38789,-12.46875 h -0.13671 q -0.57422,-0.13672 -1.1211,-0.19141 -0.5332,-0.0684 -1.27148,-0.0684 -1.18946,0 -2.29688,0.53321 -1.10742,0.51953 -2.13281,1.35351 V 340 h -2.57031 v -15.27148 h 2.57031 v 2.25585 q 1.53125,-1.23046 2.69336,-1.73632 1.17578,-0.51953 2.39258,-0.51953 0.66992,0 0.9707,0.041 0.30078,0.0273 0.90234,0.12305 z M 650.65566,340 h -2.70703 v -9.9668 h -10.1582 V 340 h -2.70703 v -20.35742 h 2.70703 v 7.98437 h 10.1582 v -7.98437 h 2.70703 z m 20.84688,-7.36914 h -11.25195 q 0,1.4082 0.42382,2.46094 0.42383,1.03906 1.16211,1.70898 0.71094,0.65625 1.68164,0.98438 0.98438,0.32812 2.16016,0.32812 1.55859,0 3.13086,-0.61523 1.58594,-0.62891 2.25586,-1.23047 h 0.13672 v 2.80273 q -1.29883,0.54688 -2.65235,0.91602 -1.35351,0.36914 -2.84375,0.36914 -3.80078,0 -5.93359,-2.05078 -2.13281,-2.06446 -2.13281,-5.85157 0,-3.74609 2.03711,-5.94726 2.05078,-2.20117 5.38672,-2.20117 3.08984,0 4.75781,1.80468 1.68164,1.80469 1.68164,5.12696 z m -2.50195,-1.96875 q -0.0137,-2.02344 -1.02539,-3.13086 -0.99805,-1.10742 -3.04883,-1.10742 -2.06446,0 -3.29492,1.21679 -1.2168,1.2168 -1.38086,3.02149 z M 690.06621,340 h -2.55664 v -1.62695 q -0.34179,0.23242 -0.92968,0.65625 -0.57422,0.41015 -1.1211,0.65625 -0.64258,0.31445 -1.47656,0.51953 -0.83398,0.21875 -1.95508,0.21875 -2.06445,0 -3.5,-1.36719 -1.43555,-1.36719 -1.43555,-3.48633 0,-1.73633 0.73829,-2.80273 0.75195,-1.08008 2.13281,-1.69531 1.39453,-0.61524 3.34961,-0.83399 1.95508,-0.21875 4.19726,-0.32812 v -0.39649 q 0,-0.875 -0.31445,-1.44922 -0.30078,-0.57422 -0.875,-0.90234 -0.54687,-0.31445 -1.3125,-0.42383 -0.76562,-0.10937 -1.59961,-0.10937 -1.01172,0 -2.25586,0.27343 -1.24414,0.25977 -2.57031,0.76563 h -0.13672 v -2.61133 q 0.75195,-0.20508 2.17383,-0.45117 1.42187,-0.2461 2.80273,-0.2461 1.61328,0 2.80274,0.27344 1.20312,0.25977 2.07812,0.90235 0.86133,0.6289 1.3125,1.62695 0.45117,0.99805 0.45117,2.47461 z m -2.55664,-3.75977 v -4.25195 q -1.17578,0.0684 -2.77539,0.20508 -1.58593,0.13672 -2.51562,0.39648 -1.10742,0.31446 -1.79102,0.98438 -0.68359,0.65625 -0.68359,1.81836 0,1.3125 0.79297,1.98242 0.79297,0.65625 2.41992,0.65625 1.35351,0 2.47461,-0.51953 1.12109,-0.5332 2.07812,-1.27149 z M 700.41309,340 h -2.57031 v -21.27344 h 2.57031 z m 15.81562,-0.13672 q -0.72461,0.19141 -1.58594,0.31445 -0.84766,0.12305 -1.51758,0.12305 -2.33789,0 -3.55469,-1.25781 -1.21679,-1.25781 -1.21679,-4.0332 v -8.1211 h -1.73633 v -2.16015 h 1.73633 v -4.38868 h 2.57031 v 4.38868 h 5.30469 v 2.16015 h -5.30469 v 6.95899 q 0,1.20312 0.0547,1.88671 0.0547,0.66993 0.38281,1.25782 0.30078,0.54687 0.82031,0.80664 0.5332,0.24609 1.61328,0.24609 0.62891,0 1.3125,-0.17773 0.6836,-0.19141 0.98438,-0.31446 h 0.13672 z M 734.90177,340 h -2.57031 v -8.69531 q 0,-1.05274 -0.12305,-1.96875 -0.12305,-0.92969 -0.45117,-1.44922 -0.3418,-0.57422 -0.98438,-0.84766 -0.64257,-0.28711 -1.66796,-0.28711 -1.05274,0 -2.20118,0.51953 -1.14843,0.51954 -2.20117,1.32618 V 340 h -2.57031 v -21.27344 h 2.57031 v 7.69727 q 1.20313,-0.99805 2.48828,-1.5586 1.28516,-0.56054 2.63867,-0.56054 2.47461,0 3.77344,1.49023 1.29883,1.49024 1.29883,4.29297 z"
     id="text2"
     fill="#7a7770"
     aria-label="Own Your Health" />
  <path
     d="M 426.41602,377.17773 H 421.2207 V 390 h -1.93359 v -12.82227 h -5.19531 v -1.71875 h 12.32422 z M 437.34375,390 h -1.83594 v -6.21094 q 0,-0.75195 -0.0879,-1.40625 -0.0879,-0.66406 -0.32226,-1.03515 -0.24414,-0.41016 -0.70313,-0.60547 -0.45898,-0.20508 -1.19141,-0.20508 -0.75195,0 -1.57226,0.37109 -0.82031,0.3711 -1.57227,0.94727 V 390 h -1.83593 v -15.19531 h 1.83593 v 5.49804 q 0.85938,-0.71289 1.77735,-1.11328 0.91797,-0.40039 1.88476,-0.40039 1.76758,0 2.69532,1.06446 0.92773,1.06445 0.92773,3.0664 z m 12.66602,-5.26367 h -8.03711 q 0,1.00586 0.30273,1.75781 0.30273,0.74219 0.83008,1.2207 0.50781,0.46875 1.20117,0.70313 0.70313,0.23437 1.54297,0.23437 1.11328,0 2.23633,-0.43945 1.13281,-0.44922 1.61133,-0.87891 h 0.0976 v 2.00196 q -0.92773,0.39062 -1.89453,0.65429 -0.9668,0.26368 -2.03125,0.26368 -2.71484,0 -4.23828,-1.46485 -1.52344,-1.47461 -1.52344,-4.17969 0,-2.67578 1.45508,-4.24804 1.46484,-1.57227 3.84766,-1.57227 2.20703,0 3.39843,1.28906 1.20118,1.28907 1.20118,3.66211 z m -1.78711,-1.40625 q -0.01,-1.44531 -0.73243,-2.23633 -0.71289,-0.79102 -2.17773,-0.79102 -1.47461,0 -2.35352,0.86914 -0.86914,0.86915 -0.98632,2.15821 z M 471.09375,390 h -1.93359 v -7.11914 H 461.9043 V 390 h -1.9336 v -14.54102 h 1.9336 v 5.70313 h 7.25586 v -5.70313 h 1.93359 z m 12.89062,-5.26367 h -8.0371 q 0,1.00586 0.30273,1.75781 0.30273,0.74219 0.83008,1.2207 0.50781,0.46875 1.20117,0.70313 0.70312,0.23437 1.54297,0.23437 1.11328,0 2.23633,-0.43945 1.13281,-0.44922 1.61132,-0.87891 h 0.0977 v 2.00196 q -0.92773,0.39062 -1.89453,0.65429 -0.9668,0.26368 -2.03125,0.26368 -2.71484,0 -4.23828,-1.46485 -1.52344,-1.47461 -1.52344,-4.17969 0,-2.67578 1.45508,-4.24804 1.46484,-1.57227 3.84766,-1.57227 2.20703,0 3.39843,1.28906 1.20117,1.28907 1.20117,3.66211 z m -1.7871,-1.40625 q -0.01,-1.44531 -0.73243,-2.23633 -0.71289,-0.79102 -2.17773,-0.79102 -1.47461,0 -2.35352,0.86914 -0.86914,0.86915 -0.98632,2.15821 z M 495.24414,390 h -1.82617 v -1.16211 q -0.24414,0.16602 -0.66406,0.46875 -0.41016,0.29297 -0.80079,0.46875 -0.45898,0.22461 -1.05468,0.37109 -0.59571,0.15625 -1.39649,0.15625 -1.47461,0 -2.5,-0.97656 -1.02539,-0.97656 -1.02539,-2.49023 0,-1.24024 0.52735,-2.00196 0.53711,-0.77148 1.52343,-1.21093 0.9961,-0.43946 2.39258,-0.59571 1.39649,-0.15625 2.99805,-0.23437 v -0.2832 q 0,-0.625 -0.22461,-1.03516 -0.21484,-0.41016 -0.625,-0.64453 -0.39063,-0.22461 -0.9375,-0.30274 -0.54688,-0.0781 -1.14258,-0.0781 -0.72266,0 -1.61133,0.19531 -0.88867,0.18555 -1.83593,0.54688 h -0.0977 v -1.86524 q 0.53711,-0.14648 1.55273,-0.32226 1.01563,-0.17579 2.00196,-0.17579 1.15234,0 2.00195,0.19532 0.85937,0.18554 1.48437,0.64453 0.61524,0.44922 0.9375,1.16211 0.32227,0.71289 0.32227,1.76758 z m -1.82617,-2.68555 v -3.03711 q -0.83985,0.0488 -1.98242,0.14649 -1.13282,0.0976 -1.79688,0.2832 -0.79101,0.22461 -1.2793,0.70313 -0.48828,0.46875 -0.48828,1.29882 0,0.9375 0.56641,1.41602 0.56641,0.46875 1.72852,0.46875 0.96679,0 1.76757,-0.37109 0.80078,-0.38086 1.48438,-0.90821 z M 500.63477,390 h -1.83594 v -15.19531 h 1.83594 z m 9.29687,-0.0977 q -0.51758,0.13672 -1.13281,0.22461 -0.60547,0.0879 -1.08399,0.0879 -1.66992,0 -2.53906,-0.89843 -0.86914,-0.89844 -0.86914,-2.88086 v -5.80078 h -1.24023 v -1.54297 h 1.24023 v -3.13477 h 1.83594 v 3.13477 h 3.78906 v 1.54297 h -3.78906 v 4.9707 q 0,0.85937 0.0391,1.34765 0.0391,0.47852 0.27344,0.89844 0.21484,0.39063 0.58594,0.57617 0.38085,0.17579 1.15234,0.17579 0.44922,0 0.9375,-0.12696 0.48828,-0.13672 0.70312,-0.22461 h 0.0977 z M 521.26953,390 h -1.83594 v -6.21094 q 0,-0.75195 -0.0879,-1.40625 -0.0879,-0.66406 -0.32226,-1.03515 -0.24414,-0.41016 -0.70313,-0.60547 -0.45898,-0.20508 -1.1914,-0.20508 -0.75196,0 -1.57227,0.37109 -0.82031,0.3711 -1.57227,0.94727 V 390 h -1.83593 v -15.19531 h 1.83593 v 5.49804 q 0.85938,-0.71289 1.77735,-1.11328 0.91797,-0.40039 1.88476,-0.40039 1.76758,0 2.69532,1.06446 0.92773,1.06445 0.92773,3.0664 z m 11.32813,-3.14453 q 0,1.49414 -1.24024,2.45117 -1.23047,0.95703 -3.36914,0.95703 -1.21094,0 -2.22656,-0.2832 -1.00586,-0.29297 -1.68945,-0.63477 v -2.06054 h 0.0977 q 0.86914,0.65429 1.9336,1.04492 1.06445,0.38086 2.04101,0.38086 1.21094,0 1.89453,-0.39063 0.6836,-0.39062 0.6836,-1.23047 0,-0.64453 -0.3711,-0.97656 -0.37109,-0.33203 -1.42578,-0.56641 -0.39062,-0.0879 -1.02539,-0.20507 -0.625,-0.11719 -1.14258,-0.25391 -1.43554,-0.38086 -2.04101,-1.11328 -0.59571,-0.74219 -0.59571,-1.81641 0,-0.67383 0.27344,-1.26953 0.2832,-0.5957 0.84961,-1.06445 0.54688,-0.45899 1.38672,-0.72266 0.84961,-0.27344 1.89453,-0.27344 0.97656,0 1.97266,0.24415 1.00586,0.23437 1.66992,0.57617 v 1.96289 h -0.0977 q -0.70312,-0.51758 -1.70898,-0.86914 -1.00586,-0.36133 -1.97266,-0.36133 -1.00586,0 -1.69922,0.39062 -0.69336,0.38086 -0.69336,1.14258 0,0.67383 0.41993,1.01563 0.41015,0.34179 1.32812,0.55664 0.50781,0.11719 1.13281,0.23437 0.63477,0.11719 1.05469,0.21485 1.2793,0.29297 1.97266,1.00586 0.69336,0.72265 0.69336,1.91406 z m 12.22656,-2.44141 q 0,1.32813 -0.38086,2.43164 -0.38086,1.09375 -1.07422,1.85547 -0.64453,0.72266 -1.52344,1.12305 -0.86914,0.39062 -1.8457,0.39062 -0.84961,0 -1.54297,-0.18554 -0.68359,-0.18555 -1.39648,-0.57618 v 4.57032 h -1.83594 V 379.0918 h 1.83594 v 1.14257 q 0.73242,-0.61523 1.64062,-1.02539 0.91797,-0.41992 1.95313,-0.41992 1.97265,0 3.0664,1.49414 1.10352,1.48438 1.10352,4.13086 z m -1.89453,0.0488 q 0,-1.97266 -0.67383,-2.94922 -0.67383,-0.97656 -2.07031,-0.97656 -0.79102,0 -1.5918,0.3418 -0.80078,0.34179 -1.5332,0.89843 v 6.18164 q 0.78125,0.35157 1.33789,0.47852 0.5664,0.12695 1.27929,0.12695 1.53321,0 2.39258,-1.03515 0.85938,-1.03516 0.85938,-3.06641 z M 556.16211,390 h -1.82617 v -1.16211 q -0.24414,0.16602 -0.66407,0.46875 -0.41015,0.29297 -0.80078,0.46875 -0.45898,0.22461 -1.05468,0.37109 -0.59571,0.15625 -1.39649,0.15625 -1.47461,0 -2.5,-0.97656 -1.02539,-0.97656 -1.02539,-2.49023 0,-1.24024 0.52734,-2.00196 0.53711,-0.77148 1.52344,-1.21093 0.9961,-0.43946 2.39258,-0.59571 1.39648,-0.15625 2.99805,-0.23437 v -0.2832 q 0,-0.625 -0.22461,-1.03516 -0.21485,-0.41016 -0.625,-0.64453 -0.39063,-0.22461 -0.9375,-0.30274 -0.54688,-0.0781 -1.14258,-0.0781 -0.72266,0 -1.61133,0.19531 -0.88867,0.18555 -1.83594,0.54688 h -0.0977 v -1.86524 q 0.53711,-0.14648 1.55273,-0.32226 1.01563,-0.17579 2.00196,-0.17579 1.15234,0 2.00195,0.19532 0.85937,0.18554 1.48437,0.64453 0.61524,0.44922 0.9375,1.16211 0.32227,0.71289 0.32227,1.76758 z m -1.82617,-2.68555 v -3.03711 q -0.83985,0.0488 -1.98242,0.14649 -1.13282,0.0976 -1.79688,0.2832 -0.79102,0.22461 -1.2793,0.70313 -0.48828,0.46875 -0.48828,1.29882 0,0.9375 0.56641,1.41602 0.5664,0.46875 1.72851,0.46875 0.9668,0 1.76758,-0.37109 0.80078,-0.38086 1.48438,-0.90821 z M 568.81836,390 h -1.83594 v -6.21094 q 0,-0.75195 -0.0879,-1.40625 -0.0879,-0.66406 -0.32226,-1.03515 -0.24415,-0.41016 -0.70313,-0.60547 -0.45898,-0.20508 -1.19141,-0.20508 -0.75195,0 -1.57226,0.37109 -0.82031,0.3711 -1.57227,0.94727 V 390 h -1.83593 v -10.9082 h 1.83593 v 1.21093 q 0.85938,-0.71289 1.77735,-1.11328 0.91797,-0.40039 1.88476,-0.40039 1.76758,0 2.69531,1.06446 0.92774,1.06445 0.92774,3.0664 z m 15.83984,0 h -5.74218 v -1.48438 h 1.90429 v -11.57226 h -1.90429 v -1.48438 h 5.74218 v 1.48438 h -1.90429 v 11.57226 h 1.90429 z m 12.26563,0 h -1.83594 v -6.21094 q 0,-0.75195 -0.0879,-1.40625 -0.0879,-0.66406 -0.32227,-1.03515 -0.24414,-0.41016 -0.70312,-0.60547 -0.45899,-0.20508 -1.19141,-0.20508 -0.75195,0 -1.57226,0.37109 -0.82032,0.3711 -1.57227,0.94727 V 390 h -1.83594 v -10.9082 h 1.83594 v 1.21093 q 0.85938,-0.71289 1.77735,-1.11328 0.91796,-0.40039 1.88476,-0.40039 1.76758,0 2.69531,1.06446 0.92774,1.06445 0.92774,3.0664 z m 9.19922,-0.0977 q -0.51758,0.13672 -1.13282,0.22461 -0.60546,0.0879 -1.08398,0.0879 -1.66992,0 -2.53906,-0.89843 -0.86914,-0.89844 -0.86914,-2.88086 v -5.80078 h -1.24024 v -1.54297 h 1.24024 v -3.13477 h 1.83593 v 3.13477 h 3.78907 v 1.54297 h -3.78907 v 4.9707 q 0,0.85937 0.0391,1.34765 0.0391,0.47852 0.27343,0.89844 0.21485,0.39063 0.58594,0.57617 0.38086,0.17579 1.15235,0.17579 0.44921,0 0.9375,-0.12696 0.48828,-0.13672 0.70312,-0.22461 h 0.0977 z m 11.34765,-5.16601 h -8.03711 q 0,1.00586 0.30274,1.75781 0.30273,0.74219 0.83008,1.2207 0.50781,0.46875 1.20117,0.70313 0.70312,0.23437 1.54297,0.23437 1.11328,0 2.23632,-0.43945 1.13282,-0.44922 1.61133,-0.87891 h 0.0977 v 2.00196 q -0.92774,0.39062 -1.89453,0.65429 -0.9668,0.26368 -2.03125,0.26368 -2.71485,0 -4.23828,-1.46485 -1.52344,-1.47461 -1.52344,-4.17969 0,-2.67578 1.45508,-4.24804 1.46484,-1.57227 3.84765,-1.57227 2.20703,0 3.39844,1.28906 1.20117,1.28907 1.20117,3.66211 z m -1.78711,-1.40625 q -0.01,-1.44531 -0.73242,-2.23633 -0.71289,-0.79102 -2.17773,-0.79102 -1.47461,0 -2.35352,0.86914 -0.86914,0.86915 -0.98633,2.15821 z M 622.10937,390 h -1.83593 v -15.19531 h 1.83593 z m 5.48829,0 h -1.83594 v -15.19531 h 1.83594 z m 5.60546,-12.73438 h -2.07031 v -1.90429 h 2.07031 z M 633.08594,390 H 631.25 v -10.9082 h 1.83594 z m 12.48047,-1.24023 q 0,2.77343 -1.25977,4.07226 -1.25977,1.29883 -3.87695,1.29883 -0.86914,0 -1.69922,-0.12695 -0.82031,-0.11719 -1.6211,-0.3418 v -1.875 h 0.0977 q 0.44922,0.17578 1.42578,0.42969 0.97656,0.26367 1.95313,0.26367 0.9375,0 1.55273,-0.22461 0.61524,-0.22461 0.95703,-0.625 0.3418,-0.38086 0.48828,-0.91797 0.14649,-0.53711 0.14649,-1.20117 v -0.9961 q -0.83008,0.66407 -1.5918,0.9961 -0.75195,0.32226 -1.92383,0.32226 -1.95312,0 -3.10547,-1.40625 -1.14257,-1.41601 -1.14257,-3.98437 0,-1.40625 0.39062,-2.42188 0.40039,-1.02539 1.08399,-1.76757 0.63476,-0.69336 1.54296,-1.07422 0.90821,-0.39063 1.80665,-0.39063 0.94726,0 1.58203,0.19531 0.64453,0.18555 1.35742,0.57618 l 0.11719,-0.46875 h 1.71875 z m -1.83594,-1.75782 v -5.94726 q -0.73242,-0.33203 -1.36719,-0.46875 -0.625,-0.14649 -1.25,-0.14649 -1.51367,0 -2.38281,1.01563 -0.86914,1.01562 -0.86914,2.94922 0,1.83593 0.64453,2.7832 0.64453,0.94727 2.13867,0.94727 0.80078,0 1.60156,-0.30274 0.81055,-0.3125 1.48438,-0.83008 z m 14.58008,-2.26562 h -8.03711 q 0,1.00586 0.30273,1.75781 0.30274,0.74219 0.83008,1.2207 0.50781,0.46875 1.20117,0.70313 0.70313,0.23437 1.54297,0.23437 1.11328,0 2.23633,-0.43945 1.13281,-0.44922 1.61133,-0.87891 h 0.0976 v 2.00196 q -0.92773,0.39062 -1.89453,0.65429 -0.9668,0.26368 -2.03125,0.26368 -2.71484,0 -4.23828,-1.46485 -1.52344,-1.47461 -1.52344,-4.17969 0,-2.67578 1.45508,-4.24804 1.46484,-1.57227 3.84766,-1.57227 2.20703,0 3.39843,1.28906 1.20118,1.28907 1.20118,3.66211 z m -1.78711,-1.40625 q -0.01,-1.44531 -0.73242,-2.23633 -0.7129,-0.79102 -2.17774,-0.79102 -1.47461,0 -2.35351,0.86914 -0.86915,0.86915 -0.98633,2.15821 z M 670.21484,390 h -1.83593 v -6.21094 q 0,-0.75195 -0.0879,-1.40625 -0.0879,-0.66406 -0.32227,-1.03515 -0.24414,-0.41016 -0.70313,-0.60547 -0.45898,-0.20508 -1.1914,-0.20508 -0.75195,0 -1.57227,0.37109 -0.82031,0.3711 -1.57226,0.94727 V 390 h -1.83594 v -10.9082 h 1.83594 v 1.21093 q 0.85937,-0.71289 1.77734,-1.11328 0.91797,-0.40039 1.88477,-0.40039 1.76757,0 2.69531,1.06446 0.92773,1.06445 0.92773,3.0664 z m 11.60157,-0.68359 q -0.91797,0.43945 -1.74805,0.68359 -0.82031,0.24414 -1.74805,0.24414 -1.18164,0 -2.16797,-0.3418 -0.98632,-0.35156 -1.68945,-1.05468 -0.71289,-0.70313 -1.10352,-1.77735 -0.39062,-1.07422 -0.39062,-2.50976 0,-2.67578 1.46484,-4.19922 1.47461,-1.52344 3.88672,-1.52344 0.9375,0 1.83594,0.26367 0.9082,0.26367 1.66016,0.64453 v 2.04102 h -0.0977 q -0.83984,-0.6543 -1.73828,-1.00586 -0.88867,-0.35156 -1.73828,-0.35156 -1.5625,0 -2.47071,1.05468 -0.89843,1.04493 -0.89843,3.07618 0,1.97265 0.8789,3.03711 0.88867,1.05468 2.49024,1.05468 0.55664,0 1.13281,-0.14648 0.57617,-0.14649 1.03516,-0.38086 0.40039,-0.20508 0.75195,-0.42969 0.35156,-0.23437 0.55664,-0.40039 h 0.0977 z m 11.48437,-4.58008 h -8.03711 q 0,1.00586 0.30274,1.75781 0.30273,0.74219 0.83007,1.2207 0.50782,0.46875 1.20118,0.70313 0.70312,0.23437 1.54296,0.23437 1.11329,0 2.23633,-0.43945 1.13282,-0.44922 1.61133,-0.87891 h 0.0977 v 2.00196 q -0.92774,0.39062 -1.89453,0.65429 -0.9668,0.26368 -2.03125,0.26368 -2.71485,0 -4.23829,-1.46485 -1.52343,-1.47461 -1.52343,-4.17969 0,-2.67578 1.45508,-4.24804 1.46484,-1.57227 3.84765,-1.57227 2.20703,0 3.39844,1.28906 1.20117,1.28907 1.20117,3.66211 z m -1.78711,-1.40625 q -0.01,-1.44531 -0.73242,-2.23633 -0.71289,-0.79102 -2.17773,-0.79102 -1.47461,0 -2.35352,0.86914 -0.86914,0.86915 -0.98633,2.15821 z m 21.25977,-3.47656 q 0,0.96679 -0.3418,1.79687 -0.33203,0.82031 -0.9375,1.42578 -0.75195,0.75195 -1.77734,1.13281 -1.02539,0.3711 -2.58789,0.3711 h -1.9336 V 390 h -1.93359 v -14.54102 h 3.94531 q 1.30859,0 2.2168,0.22461 0.9082,0.21485 1.61133,0.6836 0.83007,0.55664 1.27929,1.38672 0.45899,0.83007 0.45899,2.09961 z m -2.01172,0.0488 q 0,-0.75195 -0.26367,-1.30859 -0.26368,-0.55664 -0.80078,-0.9082 -0.46875,-0.30274 -1.07422,-0.42969 -0.59571,-0.13672 -1.51368,-0.13672 h -1.91406 v 5.81055 h 1.63086 q 1.17188,0 1.9043,-0.20508 0.73242,-0.21484 1.1914,-0.67383 0.45899,-0.46875 0.64454,-0.98633 0.19531,-0.51758 0.19531,-1.16211 z M 717.03125,390 h -1.83594 v -15.19531 h 1.83594 z m 12.10937,0 h -1.82617 v -1.16211 q -0.24414,0.16602 -0.66406,0.46875 -0.41016,0.29297 -0.80078,0.46875 -0.45899,0.22461 -1.05469,0.37109 -0.5957,0.15625 -1.39648,0.15625 -1.47461,0 -2.5,-0.97656 -1.02539,-0.97656 -1.02539,-2.49023 0,-1.24024 0.52734,-2.00196 0.53711,-0.77148 1.52344,-1.21093 0.99609,-0.43946 2.39258,-0.59571 1.39648,-0.15625 2.99804,-0.23437 v -0.2832 q 0,-0.625 -0.22461,-1.03516 -0.21484,-0.41016 -0.625,-0.64453 -0.39062,-0.22461 -0.9375,-0.30274 -0.54687,-0.0781 -1.14257,-0.0781 -0.72266,0 -1.61133,0.19531 -0.88867,0.18555 -1.83594,0.54688 h -0.0977 v -1.86524 q 0.53711,-0.14648 1.55274,-0.32226 1.01562,-0.17579 2.00195,-0.17579 1.15234,0 2.00195,0.19532 0.85938,0.18554 1.48438,0.64453 0.61523,0.44922 0.9375,1.16211 0.32226,0.71289 0.32226,1.76758 z m -1.82617,-2.68555 v -3.03711 q -0.83984,0.0488 -1.98242,0.14649 -1.13281,0.0976 -1.79687,0.2832 -0.79102,0.22461 -1.2793,0.70313 -0.48828,0.46875 -0.48828,1.29882 0,0.9375 0.5664,1.41602 0.56641,0.46875 1.72852,0.46875 0.9668,0 1.76758,-0.37109 0.80078,-0.38086 1.48437,-0.90821 z m 11.02539,2.58789 q -0.51757,0.13672 -1.13281,0.22461 -0.60547,0.0879 -1.08398,0.0879 -1.66993,0 -2.53907,-0.89843 -0.86914,-0.89844 -0.86914,-2.88086 v -5.80078 h -1.24023 v -1.54297 h 1.24023 v -3.13477 h 1.83594 v 3.13477 h 3.78906 v 1.54297 h -3.78906 v 4.9707 q 0,0.85937 0.0391,1.34765 0.0391,0.47852 0.27344,0.89844 0.21484,0.39063 0.58594,0.57617 0.38086,0.17579 1.15234,0.17579 0.44922,0 0.9375,-0.12696 0.48828,-0.13672 0.70313,-0.22461 h 0.0976 z m 8.08594,-13.32031 h -0.0977 q -0.30273,-0.0879 -0.79101,-0.17578 -0.48828,-0.0977 -0.85938,-0.0977 -1.18164,0 -1.71875,0.52735 -0.52734,0.51758 -0.52734,1.88476 v 0.3711 h 3.31055 v 1.54297 h -3.25196 V 390 h -1.83593 v -9.36523 h -1.24024 v -1.54297 h 1.24024 v -0.36133 q 0,-1.94336 0.96679,-2.97852 0.9668,-1.04492 2.79297,-1.04492 0.61524,0 1.10352,0.0586 0.49804,0.0586 0.9082,0.13672 z m 10.45899,7.96875 q 0,2.66602 -1.36719,4.20899 -1.36719,1.54296 -3.66211,1.54296 -2.31445,0 -3.68164,-1.54296 -1.35742,-1.54297 -1.35742,-4.20899 0,-2.66601 1.35742,-4.20898 1.36719,-1.55274 3.68164,-1.55274 2.29492,0 3.66211,1.55274 1.36719,1.54297 1.36719,4.20898 z m -1.89454,0 q 0,-2.11914 -0.83007,-3.14453 -0.83008,-1.03516 -2.30469,-1.03516 -1.49414,0 -2.32422,1.03516 -0.82031,1.02539 -0.82031,3.14453 0,2.05078 0.83008,3.11524 0.83007,1.05468 2.31445,1.05468 1.46484,0 2.29492,-1.04492 0.83984,-1.05469 0.83984,-3.125 z m 11.54297,-3.45703 h -0.0976 q -0.41016,-0.0977 -0.80078,-0.13672 -0.38086,-0.0488 -0.90821,-0.0488 -0.84961,0 -1.64062,0.38086 -0.79102,0.3711 -1.52344,0.9668 V 390 h -1.83594 v -10.9082 h 1.83594 v 1.61132 q 1.09375,-0.8789 1.92383,-1.24023 0.83984,-0.37109 1.70898,-0.37109 0.47852,0 0.69336,0.0293 0.21485,0.0195 0.64453,0.0879 z M 784.17969,390 h -1.83594 v -6.21094 q 0,-0.70312 -0.0684,-1.35742 -0.0586,-0.6543 -0.26367,-1.04492 -0.22461,-0.41992 -0.64453,-0.63477 -0.41992,-0.21484 -1.21094,-0.21484 -0.77148,0 -1.54297,0.39062 -0.77148,0.38086 -1.54297,0.97657 0.0293,0.22461 0.0488,0.52734 0.0195,0.29297 0.0195,0.58594 V 390 h -1.83594 v -6.21094 q 0,-0.72265 -0.0684,-1.36719 -0.0586,-0.65429 -0.26367,-1.04492 -0.22461,-0.41992 -0.64453,-0.625 -0.41992,-0.21484 -1.21094,-0.21484 -0.75195,0 -1.51367,0.37109 -0.75195,0.3711 -1.5039,0.94727 V 390 h -1.83594 v -10.9082 h 1.83594 v 1.21093 q 0.85937,-0.71289 1.70898,-1.11328 0.85938,-0.40039 1.82617,-0.40039 1.11328,0 1.88477,0.46875 0.78125,0.46875 1.16211,1.29883 1.11328,-0.9375 2.03125,-1.34766 0.91797,-0.41992 1.96289,-0.41992 1.79687,0 2.64648,1.09375 0.85938,1.08399 0.85938,3.03711 z"
     id="text3"
     fill="#4a4845"
     aria-label="The Healthspan Intelligence Platform" />
</svg>
