<?xml version="1.0" encoding="UTF-8" standalone="no"?>
<svg
   width="640"
   height="640"
   viewBox="0 0 640 640"
   version="1.1"
   id="svg2"
   sodipodi:docname="square-transparent-white.svg"
   xmlns:inkscape="http://www.inkscape.org/namespaces/inkscape"
   xmlns:sodipodi="http://sodipodi.sourceforge.net/DTD/sodipodi-0.dtd"
   xmlns="http://www.w3.org/2000/svg"
   xmlns:svg="http://www.w3.org/2000/svg">
  <defs
     id="defs2" />
  <sodipodi:namedview
     id="namedview2"
     pagecolor="#ffffff"
     bordercolor="#000000"
     borderopacity="0.25"
     inkscape:showpageshadow="2"
     inkscape:pageopacity="0.0"
     inkscape:pagecheckerboard="0"
     inkscape:deskcolor="#d1d1d1" />
  
  <path
     d="m 242.31687,348 h -55.40625 v -6.65625 q 7.3125,-0.46875 12.09375,-1.875 4.875,-1.40625 4.875,-3.46875 0,-0.84375 -0.1875,-2.0625 -0.1875,-1.21875 -0.5625,-2.15625 l -11.0625,-29.8125 h -46.59375 q -2.625,6.5625 -4.3125,11.4375 -1.59375,4.875 -2.90625,9 -1.21875,4.03125 -1.6875,6.5625 -0.46875,2.53125 -0.46875,4.125 0,3.75 5.90625,5.8125 5.90625,2.0625 13.3125,2.4375 V 348 h -50.0625 v -6.65625 q 2.4375,-0.1875 6.09375,-1.03125 3.65625,-0.9375 6,-2.4375 3.75,-2.53125 5.8125,-5.25 2.0625,-2.8125 4.03125,-7.6875 10.03125,-25.03125 22.125,-56.25 12.09375,-31.21875 21.5625,-55.59375 h 7.5 l 44.34375,114.75 q 1.40625,3.65625 3.1875,5.90625 1.78125,2.25 4.96875,4.40625 2.15625,1.3125 5.625,2.25 3.46875,0.84375 5.8125,0.9375 z m -53.625,-54.375 -20.15625,-51.5625 -19.78125,51.5625 z m 132.33375,32.625 q -5.8125,11.0625 -15.5625,17.625 -9.75,6.5625 -22.40625,6.5625 -11.15625,0 -19.59375,-3.9375 -8.34375,-3.9375 -13.78125,-10.6875 -5.4375,-6.75 -8.15625,-15.75 -2.625,-9 -2.625,-19.03125 0,-9 2.8125,-17.625 2.90625,-8.71875 8.4375,-15.65625 5.34375,-6.65625 13.21875,-10.6875 7.96875,-4.125 17.8125,-4.125 10.125,0 17.34375,3.1875 7.21875,3.1875 11.71875,8.71875 4.3125,5.25 6.375,12.375 2.15625,7.125 2.15625,15.46875 v 6.1875 h -61.21875 q 0,9.09375 1.6875,16.5 1.78125,7.40625 5.53125,13.03125 3.65625,5.4375 9.5625,8.625 5.90625,3.09375 14.0625,3.09375 8.34375,0 14.34375,-3.84375 6.09375,-3.9375 11.71875,-14.0625 z M 300.30687,291 q 0,-5.25 -0.9375,-11.25 -0.84375,-6 -2.8125,-10.03125 -2.15625,-4.3125 -5.90625,-7.03125 -3.75,-2.71875 -9.65625,-2.71875 -9.84375,0 -16.40625,8.25 Q 258.11937,276.375 257.55687,291 Z m 96.4275,-23.53125 q 0,4.78125 -2.34375,8.53125 -2.34375,3.65625 -7.21875,3.65625 -5.25,0 -8.0625,-2.71875 -2.71875,-2.71875 -2.71875,-6 0,-2.0625 0.28125,-3.75 0.375,-1.6875 0.65625,-3.375 -4.40625,0 -10.3125,3.5625 -5.90625,3.5625 -10.03125,10.125 v 53.8125 q 0,3.28125 1.21875,5.34375 1.3125,2.0625 4.03125,3.09375 2.34375,0.9375 6,1.40625 3.75,0.46875 6.46875,0.65625 V 348 h -48.75 v -6.1875 q 2.15625,-0.1875 4.40625,-0.375 2.34375,-0.1875 4.03125,-0.75 2.625,-0.84375 3.84375,-2.90625 1.3125,-2.15625 1.3125,-5.53125 v -57.09375 q 0,-2.90625 -1.40625,-5.71875 -1.3125,-2.8125 -3.75,-4.5 -1.78125,-1.125 -4.21875,-1.59375 -2.4375,-0.5625 -5.25,-0.75 V 256.5 l 30.75,-2.0625 1.3125,1.3125 v 13.03125 h 0.46875 q 5.8125,-7.59375 12.9375,-11.53125 7.125,-3.9375 13.03125,-3.9375 5.90625,0 9.5625,3.84375 3.75,3.84375 3.75,10.3125 z M 480.97438,326.25 q -5.8125,11.0625 -15.5625,17.625 -9.75,6.5625 -22.40625,6.5625 -11.15625,0 -19.59375,-3.9375 -8.34375,-3.9375 -13.78125,-10.6875 -5.4375,-6.75 -8.15625,-15.75 -2.625,-9 -2.625,-19.03125 0,-9 2.8125,-17.625 2.90625,-8.71875 8.4375,-15.65625 5.34375,-6.65625 13.21875,-10.6875 7.96875,-4.125 17.8125,-4.125 10.125,0 17.34375,3.1875 7.21875,3.1875 11.71875,8.71875 4.3125,5.25 6.375,12.375 2.15625,7.125 2.15625,15.46875 v 6.1875 h -61.21875 q 0,9.09375 1.6875,16.5 1.78125,7.40625 5.53125,13.03125 3.65625,5.4375 9.5625,8.625 5.90625,3.09375 14.0625,3.09375 8.34375,0 14.34375,-3.84375 6.09375,-3.9375 11.71875,-14.0625 z M 460.25563,291 q 0,-5.25 -0.9375,-11.25 -0.84375,-6 -2.8125,-10.03125 -2.15625,-4.3125 -5.90625,-7.03125 -3.75,-2.71875 -9.65625,-2.71875 -9.84375,0 -16.40625,8.25 Q 418.06813,276.375 417.50563,291 Z m 57.80249,46.21875 q 0,5.25 -3.84375,9 -3.75,3.65625 -9,3.65625 -5.25,0 -9.09375,-3.65625 -3.75,-3.75 -3.75,-9 0,-5.25 3.75,-9 3.84375,-3.84375 9.09375,-3.84375 5.25,0 9,3.84375 3.84375,3.75 3.84375,9 z"
     id="text1"
     fill="#ffffff"
     aria-label="Aere." />
  <path
     d="m 89.041513,418.456 q -3.914,0 -6.878,-1.71 -2.964,-1.748 -4.636,-4.826 -1.672,-3.116 -1.672,-7.22 0,-4.066 1.672,-7.144 1.672,-3.116 4.636,-4.864 2.964,-1.748 6.878,-1.748 3.952,0 6.916,1.748 2.964,1.748 4.597997,4.864 1.672,3.078 1.672,7.144 0,4.104 -1.672,7.22 -1.633997,3.078 -4.597997,4.826 -2.964,1.71 -6.916,1.71 z m 0,-3.382 q 2.774,0 4.864,-1.254 2.128,-1.254 3.268,-3.572 1.178,-2.318 1.178,-5.548 0,-3.23 -1.178,-5.548 -1.14,-2.318 -3.268,-3.534 -2.09,-1.254 -4.864,-1.254 -2.774,0 -4.864,1.254 -2.09,1.216 -3.268,3.534 -1.178,2.318 -1.178,5.548 0,3.23 1.178,5.548 1.178,2.318 3.268,3.572 2.09,1.254 4.864,1.254 z m 32.343097,2.926 -6.65,-26.6 h 3.952 l 5.662,23.978 h 0.152 l 6.46,-23.978 h 4.18 l 6.65,23.978 h 0.152 l 5.51,-23.978 h 3.952 l -6.688,26.6 h -5.776 l -5.852,-21.014 h -0.152 l -5.814,21.014 z m 43.92002,0 v -26.6 h 5.13 l 12.084,22.002 h 0.152 V 391.4 h 3.8 V 418 h -5.13 l -12.084,-21.964 h -0.152 V 418 Z m 63.44401,0 v -9.424 l -8.778,-17.176 h 4.294 l 6.346,13.3 h 0.152 l 6.346,-13.3 h 4.142 l -8.702,17.176 V 418 Z m 37.39491,0.456 q -3.914,0 -6.878,-1.71 -2.964,-1.748 -4.636,-4.826 -1.672,-3.116 -1.672,-7.22 0,-4.066 1.672,-7.144 1.672,-3.116 4.636,-4.864 2.964,-1.748 6.878,-1.748 3.952,0 6.916,1.748 2.964,1.748 4.598,4.864 1.672,3.078 1.672,7.144 0,4.104 -1.672,7.22 -1.634,3.078 -4.598,4.826 -2.964,1.71 -6.916,1.71 z m 0,-3.382 q 2.774,0 4.864,-1.254 2.128,-1.254 3.268,-3.572 1.178,-2.318 1.178,-5.548 0,-3.23 -1.178,-5.548 -1.14,-2.318 -3.268,-3.534 -2.09,-1.254 -4.864,-1.254 -2.774,0 -4.864,1.254 -2.09,1.216 -3.268,3.534 -1.178,2.318 -1.178,5.548 0,3.23 1.178,5.548 1.178,2.318 3.268,3.572 2.09,1.254 4.864,1.254 z m 38.106,3.382 q -2.812,0 -5.13,-1.102 -2.28,-1.14 -3.61,-3.42 -1.33,-2.318 -1.33,-5.89 V 391.4 h 3.8 v 16.682 q 0,2.394 0.798,3.952 0.798,1.52 2.204,2.28 1.444,0.722 3.344,0.722 1.938,0 3.306,-0.722 1.406,-0.76 2.204,-2.28 0.798,-1.558 0.798,-3.952 V 391.4 h 3.8 v 16.644 q 0,3.572 -1.406,5.89 -1.368,2.28 -3.686,3.42 -2.28,1.102 -5.092,1.102 z M 329.66358,418 v -26.6 h 9.006 q 3.154,0 5.168,1.064 2.014,1.064 2.964,2.85 0.988,1.748 0.988,3.99 0,2.128 -0.988,3.952 -0.95,1.786 -3.002,2.888 -2.052,1.064 -5.244,1.064 h -5.092 V 418 Z m 13.984,0 -5.738,-11.818 h 4.18 l 5.966,11.818 z m -10.184,-13.68 h 4.94 q 2.85,0 4.142,-1.368 1.33,-1.406 1.33,-3.572 0,-2.204 -1.292,-3.496 -1.292,-1.292 -4.18,-1.292 h -4.94 z M 398.84565,418 v -26.6 h 3.8 V 418 Z m -16.91,0 v -26.6 h 3.8 V 418 Z m 3.154,-12.008 v -3.116 h 14.592 v 3.116 z m 32.976,12.008 v -26.6 h 16.796 v 3.116 h -12.996 v 8.512 h 11.856 v 3.04 h -11.856 v 8.816 h 12.996 V 418 Z m 30.126,0 8.892,-26.6 h 6.004 l 8.778,26.6 h -4.028 l -7.676,-24.054 h -0.152 l -7.828,24.054 z m 4.408,-8.094 1.064,-3.04 h 12.502 l 1.064,3.04 z M 485.14542,418 v -26.6 h 3.8 v 23.598 h 12.16 V 418 Z m 32.34308,0 v -23.484 h -7.904 V 391.4 h 19.57 v 3.116 h -7.904 V 418 Z m 42.47598,0 v -26.6 h 3.8 V 418 Z m -16.91,0 v -26.6 h 3.8 V 418 Z m 3.154,-12.008 v -3.116 h 14.592 v 3.116 z"
     id="text2"
     
     aria-label="OWN YOUR HEALTH" />
</svg>
