<svg xmlns="http://www.w3.org/2000/svg" width="640" height="640" viewBox="0 0 640 640">
  <defs><linearGradient id="bg" x1="0%" y1="0%" x2="100%" y2="100%"><stop offset="0%" stop-color="#150E26"/><stop offset="50%" stop-color="#1C1033"/><stop offset="100%" stop-color="#0F0D1A"/></linearGradient></defs>
  <rect width="640" height="640" fill="url(#bg)"/>
  <path fill="#c87cff" aria-label="Aere." d="m 106.88028,355 v -1.92 l 4.8,-1.728 q 3.84,-1.536 5.952,-3.648 2.112,-2.304 3.456,-6.336 l 39.552,-113.472 h 16.32 l 38.976,114.24 q 1.536,4.224 3.456,6.528 1.92,2.112 5.952,3.648 l 2.304,0.768 V 355 h -48.768 v -1.92 l 2.88,-0.96 q 4.032,-1.536 4.8,-4.224 0.96,-2.88 -0.192,-6.72 l -9.024,-27.648 h -42.624 l -9.216,27.072 q -1.344,4.224 -0.96,6.72 0.576,2.496 4.608,4.032 l 4.224,1.728 V 355 Z m 29.184,-45.312 h 40.128 l -19.392,-59.712 z m 136.51184,-49.92 q 12.48,0 21.312,5.184 8.832,4.992 13.44,13.824 4.8,8.64 4.8,19.776 0,2.112 -0.192,4.416 -0.192,2.112 -0.768,3.84 h -57.216 q 0.192,20.736 7.296,29.952 7.296,9.024 21.504,9.024 9.6,0 15.552,-3.072 5.952,-3.072 11.136,-9.024 l 1.92,1.728 q -5.952,10.56 -15.936,16.512 -9.792,5.952 -23.616,5.952 -13.632,0 -24.192,-5.76 -10.56,-5.952 -16.512,-16.896 -5.952,-10.944 -5.952,-26.112 0,-15.744 6.912,-26.688 6.912,-11.136 17.664,-16.896 10.944,-5.76 22.848,-5.76 z m -0.576,3.84 q -5.568,0 -9.6,3.456 -3.84,3.264 -6.144,11.904 -2.112,8.448 -2.304,24 h 32.832 q 1.92,-20.928 -1.536,-30.144 -3.456,-9.216 -13.248,-9.216 z M 315.96811,355 v -1.92 l 2.88,-0.768 q 3.84,-1.152 5.184,-3.456 1.536,-2.304 1.536,-5.952 v -60.096 q 0,-4.224 -1.536,-6.144 -1.344,-2.112 -5.184,-2.88 l -2.88,-0.768 v -1.92 l 33.024,-11.136 1.92,1.92 1.728,16.512 v 1.536 q 2.688,-5.376 6.912,-9.792 4.416,-4.608 9.6,-7.488 5.376,-2.88 10.56,-2.88 7.296,0 11.136,4.032 3.84,4.032 3.84,10.176 0,6.528 -3.84,10.176 -3.648,3.456 -8.832,3.456 -8.064,0 -14.208,-8.064 l -0.384,-0.384 q -1.92,-2.688 -4.416,-2.88 -2.496,-0.384 -4.608,2.304 -1.92,1.728 -3.264,4.224 -1.152,2.304 -2.304,5.376 v 53.568 q 0,7.68 6.72,9.6 l 6.144,1.728 V 355 Z m 124.03186,-95.232 q 12.48,0 21.312,5.184 8.832,4.992 13.44,13.824 4.8,8.64 4.8,19.776 0,2.112 -0.192,4.416 -0.192,2.112 -0.768,3.84 h -57.216 q 0.192,20.736 7.296,29.952 7.296,9.024 21.504,9.024 9.6,0 15.552,-3.072 5.952,-3.072 11.136,-9.024 l 1.92,1.728 q -5.952,10.56 -15.936,16.512 -9.792,5.952 -23.616,5.952 -13.632,0 -24.192,-5.76 -10.56,-5.952 -16.512,-16.896 -5.952,-10.944 -5.952,-26.112 0,-15.744 6.912,-26.688 6.912,-11.136 17.664,-16.896 10.944,-5.76 22.848,-5.76 z m -0.576,3.84 q -5.568,0 -9.6,3.456 -3.84,3.264 -6.144,11.904 -2.112,8.448 -2.304,24 h 32.832 q 1.92,-20.928 -1.536,-30.144 -3.456,-9.216 -13.248,-9.216 z m 66.43189,94.272 q -6.912,0 -11.712,-4.8 -4.8,-4.8 -4.8,-11.52 0,-6.72 4.8,-11.712 4.8,-4.992 11.712,-4.992 6.912,0 11.712,4.992 4.8,4.992 4.8,11.712 0,6.72 -4.8,11.52 -4.8,4.8 -11.712,4.8 z"/>
</svg>
