<svg xmlns="http://www.w3.org/2000/svg" width="640" height="640" viewBox="0 0 640 640">
  <rect width="640" height="640" fill="#1A1917"/>
  <path fill="#c87cff" aria-label="Aere." d="m 106.88028,340 v -1.92 l 4.8,-1.728 q 3.84,-1.536 5.952,-3.648 2.112,-2.304 3.456,-6.336 l 39.552,-113.472 h 16.32 l 38.976,114.24 q 1.536,4.224 3.456,6.528 1.92,2.112 5.952,3.648 l 2.304,0.768 V 340 h -48.768 v -1.92 l 2.88,-0.96 q 4.032,-1.536 4.8,-4.224 0.96,-2.88 -0.192,-6.72 l -9.024,-27.648 h -42.624 l -9.216,27.072 q -1.344,4.224 -0.96,6.72 0.576,2.496 4.608,4.032 l 4.224,1.728 V 340 Z m 29.184,-45.312 h 40.128 l -19.392,-59.712 z m 136.51184,-49.92 q 12.48,0 21.312,5.184 8.832,4.992 13.44,13.824 4.8,8.64 4.8,19.776 0,2.112 -0.192,4.416 -0.192,2.112 -0.768,3.84 h -57.216 q 0.192,20.736 7.296,29.952 7.296,9.024 21.504,9.024 9.6,0 15.552,-3.072 5.952,-3.072 11.136,-9.024 l 1.92,1.728 q -5.952,10.56 -15.936,16.512 -9.792,5.952 -23.616,5.952 -13.632,0 -24.192,-5.76 -10.56,-5.952 -16.512,-16.896 -5.952,-10.944 -5.952,-26.112 0,-15.744 6.912,-26.688 6.912,-11.136 17.664,-16.896 10.944,-5.76 22.848,-5.76 z m -0.576,3.84 q -5.568,0 -9.6,3.456 -3.84,3.264 -6.144,11.904 -2.112,8.448 -2.304,24 h 32.832 q 1.92,-20.928 -1.536,-30.144 -3.456,-9.216 -13.248,-9.216 z M 315.96811,340 v -1.92 l 2.88,-0.768 q 3.84,-1.152 5.184,-3.456 1.536,-2.304 1.536,-5.952 v -60.096 q 0,-4.224 -1.536,-6.144 -1.344,-2.112 -5.184,-2.88 l -2.88,-0.768 v -1.92 l 33.024,-11.136 1.92,1.92 1.728,16.512 v 1.536 q 2.688,-5.376 6.912,-9.792 4.416,-4.608 9.6,-7.488 5.376,-2.88 10.56,-2.88 7.296,0 11.136,4.032 3.84,4.032 3.84,10.176 0,6.528 -3.84,10.176 -3.648,3.456 -8.832,3.456 -8.064,0 -14.208,-8.064 l -0.384,-0.384 q -1.92,-2.688 -4.416,-2.88 -2.496,-0.384 -4.608,2.304 -1.92,1.728 -3.264,4.224 -1.152,2.304 -2.304,5.376 v 53.568 q 0,7.68 6.72,9.6 l 6.144,1.728 V 340 Z m 124.03186,-95.232 q 12.48,0 21.312,5.184 8.832,4.992 13.44,13.824 4.8,8.64 4.8,19.776 0,2.112 -0.192,4.416 -0.192,2.112 -0.768,3.84 h -57.216 q 0.192,20.736 7.296,29.952 7.296,9.024 21.504,9.024 9.6,0 15.552,-3.072 5.952,-3.072 11.136,-9.024 l 1.92,1.728 q -5.952,10.56 -15.936,16.512 -9.792,5.952 -23.616,5.952 -13.632,0 -24.192,-5.76 -10.56,-5.952 -16.512,-16.896 -5.952,-10.944 -5.952,-26.112 0,-15.744 6.912,-26.688 6.912,-11.136 17.664,-16.896 10.944,-5.76 22.848,-5.76 z m -0.576,3.84 q -5.568,0 -9.6,3.456 -3.84,3.264 -6.144,11.904 -2.112,8.448 -2.304,24 h 32.832 q 1.92,-20.928 -1.536,-30.144 -3.456,-9.216 -13.248,-9.216 z m 66.43189,94.272 q -6.912,0 -11.712,-4.8 -4.8,-4.8 -4.8,-11.52 0,-6.72 4.8,-11.712 4.8,-4.992 11.712,-4.992 6.912,0 11.712,4.992 4.8,4.992 4.8,11.712 0,6.72 -4.8,11.52 -4.8,4.8 -11.712,4.8 z"/>
  <path fill="#7a7770" aria-label="OWN YOUR HEALTH" d="m 71.150879,385.54492 q 1.688476,1.85547 2.579101,4.5459 0.90918,2.69043 0.90918,6.10449 0,3.41406 -0.927734,6.12305 -0.90918,2.69043 -2.560547,4.49023 -1.707031,1.87403 -4.044922,2.82032 -2.319336,0.94629 -5.306641,0.94629 -2.913086,0 -5.30664,-0.96485 -2.375,-0.96484 -4.044922,-2.80176 -1.669922,-1.83691 -2.579102,-4.50879 -0.890625,-2.67187 -0.890625,-6.10449 0,-3.37695 0.890625,-6.04883 0.890625,-2.69043 2.597657,-4.60156 1.632812,-1.81836 4.044921,-2.7832 2.430665,-0.96485 5.288086,-0.96485 2.96875,0 5.325196,0.9834 2.375,0.96485 4.026367,2.76465 z m -0.333984,10.65039 q 0,-5.38086 -2.41211,-8.29394 -2.412109,-2.93164 -6.586914,-2.93164 -4.211914,0 -6.624023,2.93164 -2.393555,2.91308 -2.393555,8.29394 0,5.43653 2.449219,8.33106 2.449218,2.87597 6.568359,2.87597 4.119141,0 6.549805,-2.87597 2.449219,-2.89453 2.449219,-8.33106 z M 124.62061,382.37207 117.43994,410 h -4.13769 L 107.49463,387.06641 101.81689,410 h -4.044917 l -7.310547,-27.62793 h 3.766601 l 5.807613,22.9707 5.71485,-22.9707 h 3.72949 l 5.77051,23.19336 5.77051,-23.19336 z M 163.1167,410 h -4.5459 L 145.47119,385.28516 V 410 h -3.43262 v -27.62793 h 5.69629 l 11.94922,22.5625 v -22.5625 h 3.43262 z m 64.26367,-27.62793 -9.72266,15.51172 V 410 h -3.67382 v -11.72656 l -9.75977,-15.90137 h 4.06348 l 7.55176,12.35742 7.62597,-12.35742 z m 36.04688,3.17285 q 1.68847,1.85547 2.5791,4.5459 0.90918,2.69043 0.90918,6.10449 0,3.41406 -0.92774,6.12305 -0.90918,2.69043 -2.56054,4.49023 -1.70704,1.87403 -4.04493,2.82032 -2.31933,0.94629 -5.30664,0.94629 -2.91308,0 -5.30664,-0.96485 -2.375,-0.96484 -4.04492,-2.80176 -1.66992,-1.83691 -2.5791,-4.50879 -0.89063,-2.67187 -0.89063,-6.10449 0,-3.37695 0.89063,-6.04883 0.89062,-2.69043 2.59766,-4.60156 1.63281,-1.81836 4.04492,-2.7832 2.43066,-0.96485 5.28808,-0.96485 2.96875,0 5.3252,0.9834 2.375,0.96485 4.02637,2.76465 z m -0.33399,10.65039 q 0,-5.38086 -2.41211,-8.29394 -2.41211,-2.93164 -6.58691,-2.93164 -4.21192,0 -6.62403,2.93164 -2.39355,2.91308 -2.39355,8.29394 0,5.43653 2.44922,8.33106 2.44922,2.87597 6.56836,2.87597 4.11914,0 6.5498,-2.87597 2.44922,-2.89453 2.44922,-8.33106 z m 42.44824,2.70899 q 0,3.00586 -0.66796,5.25097 -0.64942,2.22657 -2.15235,3.71094 -1.42871,1.41016 -3.33984,2.05957 -1.91114,0.64942 -4.45313,0.64942 -2.59765,0 -4.52734,-0.68653 -1.92969,-0.68652 -3.24707,-2.02246 -1.50293,-1.52148 -2.1709,-3.67383 -0.64941,-2.15234 -0.64941,-5.28808 v -16.53223 h 3.67382 v 16.71777 q 0,2.24512 0.29688,3.54395 0.31543,1.29883 1.03906,2.35644 0.81641,1.20606 2.20801,1.81836 1.41016,0.61231 3.37695,0.61231 1.98535,0 3.37696,-0.59375 1.3916,-0.61231 2.22656,-1.83692 0.72363,-1.05761 1.02051,-2.41211 0.31543,-1.37304 0.31543,-3.3955 v -16.81055 h 3.67382 z M 347.41455,410 H 342.646 l -9.24024,-10.98438 H 328.229 V 410 h -3.67382 v -27.62793 h 7.7373 q 2.50488,0 4.17481,0.33398 1.66992,0.31543 3.00585,1.1504 1.50293,0.94628 2.3379,2.39355 0.85351,1.42871 0.85351,3.63672 0,2.9873 -1.50293,5.00976 -1.50293,2.00391 -4.13769,3.02442 z m -8.59082,-19.85352 q 0,-1.1875 -0.42676,-2.09668 -0.4082,-0.92773 -1.37304,-1.55859 -0.79786,-0.53809 -1.89258,-0.74219 -1.09473,-0.22265 -2.5791,-0.22265 H 328.229 v 10.42773 h 3.71094 q 1.74414,0 3.04297,-0.29687 1.29883,-0.31543 2.20801,-1.15039 0.83496,-0.7793 1.22461,-1.78125 0.4082,-1.02051 0.4082,-2.57911 z M 409.47021,410 h -3.67382 V 396.47363 H 392.01025 V 410 h -3.67382 v -27.62793 h 3.67382 v 10.83594 h 13.78614 v -10.83594 h 3.67382 z m 37.62403,0 h -18.20215 v -27.62793 h 18.20215 v 3.26563 h -14.52832 v 7.57031 h 14.52832 v 3.26562 h -14.52832 v 10.26074 h 14.52832 z m 39.60937,0 h -3.91504 l -2.70898,-7.7002 H 468.13037 L 465.42139,410 h -3.7295 l 10.05665,-27.62793 h 4.89843 z m -7.75586,-10.85449 -4.84277,-13.56348 -4.86133,13.56348 z M 520.37549,410 h -17.47852 v -27.62793 h 3.67383 v 24.3623 h 13.80469 z M 552.6001,385.6377 H 542.729 V 410 h -3.67382 v -24.3623 h -9.8711 v -3.26563 H 552.6001 Z M 589.44482,410 H 585.771 V 396.47363 H 571.98486 V 410 h -3.67382 v -27.62793 h 3.67382 v 10.83594 H 585.771 v -10.83594 h 3.67382 z"/>
</svg>
