<?xml version="1.0" encoding="UTF-8" standalone="no"?>
<svg
   width="640"
   height="240"
   viewBox="0 0 640 240"
   version="1.1"
   id="svg1"
   sodipodi:docname="wordmark-transparent-white.svg"
   xmlns:inkscape="http://www.inkscape.org/namespaces/inkscape"
   xmlns:sodipodi="http://sodipodi.sourceforge.net/DTD/sodipodi-0.dtd"
   xmlns="http://www.w3.org/2000/svg"
   xmlns:svg="http://www.w3.org/2000/svg">
  <defs
     id="defs1" />
  <sodipodi:namedview
     id="namedview1"
     pagecolor="#ffffff"
     bordercolor="#000000"
     borderopacity="0.25"
     inkscape:showpageshadow="2"
     inkscape:pageopacity="0.0"
     inkscape:pagecheckerboard="0"
     inkscape:deskcolor="#d1d1d1" />
  
  <path
     d="m 235.84328,189 h -60.02344 v -7.21094 q 7.92188,-0.50781 13.10157,-2.03125 5.28125,-1.52344 5.28125,-3.75781 0,-0.91406 -0.20313,-2.23438 -0.20312,-1.32031 -0.60937,-2.33593 l -11.98438,-32.29688 h -50.47656 q -2.84375,7.10938 -4.67188,12.39063 -1.72656,5.28125 -3.14843,9.75 -1.32032,4.36718 -1.82813,7.10937 -0.50781,2.74219 -0.50781,4.46875 0,4.0625 6.39844,6.29688 6.39843,2.23437 14.42187,2.64062 V 189 H 87.358906 v -7.21094 q 2.640625,-0.20312 6.601562,-1.11719 3.960938,-1.01562 6.500002,-2.64062 4.0625,-2.74219 6.29687,-5.6875 2.23438,-3.04688 4.36719,-8.32813 10.86719,-27.11718 23.96875,-60.93749 13.10156,-33.820318 23.35938,-60.226568 h 8.125 l 48.03906,124.312498 q 1.52344,3.96094 3.45312,6.39844 1.92969,2.4375 5.38282,4.77344 2.33593,1.42187 6.09375,2.4375 3.75781,0.91406 6.29687,1.01562 z M 177.74953,130.09375 155.91359,74.234375 134.48391,130.09375 Z m 143.36156,35.34375 q -6.29688,11.98437 -16.85938,19.09375 -10.5625,7.10937 -24.27343,7.10937 -12.08594,0 -21.22657,-4.26562 -9.03906,-4.26563 -14.92968,-11.57813 -5.89063,-7.3125 -8.83594,-17.0625 -2.84375,-9.75 -2.84375,-20.61718 0,-9.75 3.04687,-19.09375 3.14844,-9.44531 9.14063,-16.96094 5.78906,-7.210938 14.32031,-11.578125 8.63281,-4.46875 19.29688,-4.46875 10.96875,0 18.78906,3.453125 7.82031,3.453125 12.69531,9.445312 4.67188,5.687498 6.90625,13.406248 2.33594,7.71875 2.33594,16.75781 v 6.70313 h -66.32031 q 0,9.85156 1.82812,17.875 1.92969,8.02344 5.99219,14.11719 3.96094,5.89062 10.35937,9.34375 6.39844,3.35156 15.23438,3.35156 9.03906,0 15.53906,-4.16406 6.60156,-4.26563 12.69531,-15.23438 z M 298.66578,127.25 q 0,-5.6875 -1.01563,-12.1875 -0.91406,-6.5 -3.04687,-10.86719 -2.33594,-4.671873 -6.39844,-7.617185 -4.0625,-2.945313 -10.46094,-2.945313 -10.66406,0 -17.77344,8.937498 -7.00781,8.83594 -7.61718,24.67969 z m 104.46313,-25.49219 q 0,5.17969 -2.53906,9.24219 -2.53906,3.96094 -7.82031,3.96094 -5.6875,0 -8.73438,-2.94531 -2.94531,-2.94532 -2.94531,-6.5 0,-2.23438 0.30469,-4.0625 0.40625,-1.82813 0.71093,-3.656255 -4.77343,0 -11.17187,3.859375 -6.39844,3.85938 -10.86719,10.96875 v 58.29687 q 0,3.55469 1.32031,5.78907 1.42188,2.23437 4.36719,3.35156 2.53906,1.01562 6.5,1.52344 4.0625,0.50781 7.00781,0.71093 V 189 h -52.8125 v -6.70313 q 2.33594,-0.20312 4.77344,-0.40625 2.53906,-0.20312 4.36719,-0.8125 2.84375,-0.91406 4.16406,-3.14843 1.42188,-2.33594 1.42188,-5.99219 v -61.85156 q 0,-3.14844 -1.52344,-6.19531 -1.42188,-3.04688 -4.0625,-4.875005 -1.92969,-1.21875 -4.57031,-1.726563 -2.64063,-0.609375 -5.6875,-0.8125 V 89.875 l 33.3125,-2.234375 1.42187,1.421875 v 14.11719 h 0.50781 q 6.29688,-8.226565 14.01563,-12.49219 7.71875,-4.265625 14.11719,-4.265625 6.39843,0 10.35937,4.164062 4.0625,4.164063 4.0625,11.171873 z m 91.25999,63.67969 q -6.29687,11.98437 -16.85937,19.09375 -10.5625,7.10937 -24.27344,7.10937 -12.08594,0 -21.22656,-4.26562 -9.03906,-4.26563 -14.92969,-11.57813 -5.89062,-7.3125 -8.83594,-17.0625 -2.84375,-9.75 -2.84375,-20.61718 0,-9.75 3.04688,-19.09375 3.14844,-9.44531 9.14062,-16.96094 5.78907,-7.210938 14.32032,-11.578125 8.63281,-4.46875 19.29687,-4.46875 10.96875,0 18.78906,3.453125 7.82032,3.453125 12.69532,9.445312 4.67187,5.687498 6.90625,13.406248 2.33593,7.71875 2.33593,16.75781 v 6.70313 h -66.32031 q 0,9.85156 1.82813,17.875 1.92968,8.02344 5.99218,14.11719 3.96094,5.89062 10.35938,9.34375 6.39844,3.35156 15.23437,3.35156 9.03907,0 15.53907,-4.16406 6.60156,-4.26563 12.69531,-15.23438 z M 471.94359,127.25 q 0,-5.6875 -1.01562,-12.1875 -0.91407,-6.5 -3.04688,-10.86719 -2.33594,-4.671873 -6.39844,-7.617185 -4.0625,-2.945313 -10.46093,-2.945313 -10.66407,0 -17.77344,8.937498 -7.00781,8.83594 -7.61719,24.67969 z m 62.61939,50.07031 q 0,5.6875 -4.16407,9.75 -4.0625,3.96094 -9.75,3.96094 -5.6875,0 -9.85156,-3.96094 -4.0625,-4.0625 -4.0625,-9.75 0,-5.6875 4.0625,-9.75 4.16406,-4.16406 9.85156,-4.16406 5.6875,0 9.75,4.16406 4.16407,4.0625 4.16407,9.75 z"
     id="text1"
     fill="#ffffff"
     aria-label="Aere." />
</svg>
