<?xml version="1.0" encoding="UTF-8" standalone="no"?>
<svg
   width="640"
   height="240"
   viewBox="0 0 640 240"
   version="1.1"
   id="svg1"
   sodipodi:docname="wordmark-violet.svg"
   xmlns:inkscape="http://www.inkscape.org/namespaces/inkscape"
   xmlns:sodipodi="http://sodipodi.sourceforge.net/DTD/sodipodi-0.dtd"
   xmlns="http://www.w3.org/2000/svg"
   xmlns:svg="http://www.w3.org/2000/svg">
  <defs
     id="defs1" />
  <sodipodi:namedview
     id="namedview1"
     pagecolor="#ffffff"
     bordercolor="#000000"
     borderopacity="0.25"
     inkscape:showpageshadow="2"
     inkscape:pageopacity="0.0"
     inkscape:pagecheckerboard="0"
     inkscape:deskcolor="#d1d1d1" />
  
  <rect
     width="640"
     height="240"
     fill="#c87cff"
     id="rect1" />
  <path
     d="m 89.120303,160 v -2.08 l 5.2,-1.872 q 4.16,-1.664 6.447997,-3.952 2.288,-2.496 3.744,-6.864 l 42.848,-122.928 h 17.68 l 42.224,123.76 q 1.664,4.576 3.744,7.072 2.08,2.288 6.448,3.952 l 2.496,0.832 V 160 h -52.832 v -2.08 l 3.12,-1.04 q 4.368,-1.664 5.2,-4.576 1.04,-3.12 -0.208,-7.28 l -9.776,-29.952 h -46.176 l -9.984,29.328 q -1.456,4.576 -1.04,7.28 0.624,2.704 4.992,4.368 l 4.576,1.872 V 160 Z M 120.7363,110.912 h 43.472 l -21.008,-64.688 z m 147.88783,-54.08 q 13.52,0 23.088,5.616 9.568,5.408 14.56,14.976 5.2,9.36 5.2,21.424 0,2.288 -0.208,4.784 -0.208,2.288 -0.832,4.16 h -61.984 q 0.208,22.464 7.904,32.448 7.904,9.776 23.296,9.776 10.4,0 16.848,-3.328 6.448,-3.328 12.064,-9.776 l 2.08,1.872 q -6.448,11.44 -17.264,17.888 -10.608,6.448 -25.584,6.448 -14.768,0 -26.208,-6.24 -11.44,-6.448 -17.888,-18.304 -6.448,-11.856 -6.448,-28.288 0,-17.056 7.488,-28.912 7.488,-12.064 19.136,-18.304 11.856,-6.24 24.752,-6.24 z m -0.624,4.16 q -6.032,0 -10.4,3.744 -4.16,3.536 -6.656,12.896 -2.288,9.152 -2.496,26 h 35.568 q 2.08,-22.672 -1.664,-32.656 -3.744,-9.984 -14.352,-9.984 z m 47.632,99.008 v -2.08 l 3.12,-0.832 q 4.16,-1.248 5.616,-3.744 1.664,-2.496 1.664,-6.448 V 81.792 q 0,-4.576 -1.664,-6.656 -1.456,-2.288 -5.616,-3.12 l -3.12,-0.832 v -2.08 l 35.776,-12.064 2.08,2.08 1.872,17.888 v 1.664 q 2.912,-5.824 7.488,-10.608 4.784,-4.992 10.4,-8.112 5.824,-3.12 11.44,-3.12 7.904,0 12.064,4.368 4.16,4.368 4.16,11.024 0,7.072 -4.16,11.024 -3.952,3.744 -9.568,3.744 -8.736,0 -15.392,-8.736 l -0.416,-0.416 q -2.08,-2.912 -4.784,-3.12 -2.704,-0.416 -4.992,2.496 -2.08,1.872 -3.536,4.576 -1.248,2.496 -2.496,5.824 v 58.032 q 0,8.32 7.28,10.4 l 6.656,1.872 V 160 Z M 449.99996,56.832 q 13.52,0 23.088,5.616 9.568,5.408 14.56,14.976 5.2,9.36 5.2,21.424 0,2.288 -0.208,4.784 -0.208,2.288 -0.832,4.16 h -61.984 q 0.208,22.464 7.904,32.448 7.904,9.776 23.296,9.776 10.4,0 16.848,-3.328 6.448,-3.328 12.064,-9.776 l 2.08,1.872 q -6.448,11.44 -17.264,17.888 -10.608,6.448 -25.584,6.448 -14.768,0 -26.208,-6.24 -11.44,-6.448 -17.888,-18.304 -6.448,-11.856 -6.448,-28.288 0,-17.056 7.488,-28.912 7.488,-12.064 19.136,-18.304 11.856,-6.24 24.752,-6.24 z m -0.624,4.16 q -6.032,0 -10.4,3.744 -4.16,3.536 -6.656,12.896 -2.288,9.152 -2.496,26 h 35.568 q 2.08,-22.672 -1.664,-32.656 -3.744,-9.984 -14.352,-9.984 z m 71.9679,102.128 q -7.488,0 -12.688,-5.2 -5.2,-5.2 -5.2,-12.48 0,-7.28 5.2,-12.688 5.2,-5.408 12.688,-5.408 7.488,0 12.688,5.408 5.2,5.408 5.2,12.688 0,7.28 -5.2,12.48 -5.2,5.2 -12.688,5.2 z"
     id="text1"
     fill="#ffffff"
     aria-label="Aere." />
</svg>
